<?xml version="1.0" encoding="utf-8"?>
<!-- Generator: Adobe Illustrator 16.0.0, SVG Export Plug-In . SVG Version: 6.00 Build 0)  -->
<!DOCTYPE svg PUBLIC "-//W3C//DTD SVG 1.1//EN" "http://www.w3.org/Graphics/SVG/1.1/DTD/svg11.dtd">
<svg version="1.1" id="Layer_1" xmlns="http://www.w3.org/2000/svg" xmlns:xlink="http://www.w3.org/1999/xlink" x="0px" y="0px"
	 width="248px" height="64.883px" viewBox="0 0 248 64.883" enable-background="new 0 0 248 64.883" xml:space="preserve">
<g>
	<g>
		<path fill="#FFFFFF" d="M31.491,37.58l0.006-0.035l0.023,0.035H31.491L31.491,37.58L31.491,37.58z M29.524,2.791L29.178,2.82
			l-0.29,0.03l-0.289,0.028l-0.232,0.029l-0.229,0.029l-0.203,0.028l-0.202,0.028l-0.174,0.029l-0.175,0.029L27.21,3.082
			l-0.146,0.029l-0.146,0.027l-0.175,0.029L26.6,3.197l-0.146,0.028l-0.116,0.028l-0.146,0.029l-0.114,0.029l-0.146,0.029
			l-0.114,0.029l-0.115,0.028l-0.115,0.029l-0.115,0.028l-0.116,0.029L25.24,3.515l-0.114,0.029l-0.087,0.029l-0.116,0.028
			L24.836,3.63L24.722,3.66l-0.116,0.029l-0.087,0.029l-0.086,0.029l-0.115,0.029L24.23,3.805l-0.087,0.028l-0.087,0.029
			l-0.115,0.029l-0.087,0.029l-0.086,0.029l-0.087,0.028l-0.087,0.029l-0.086,0.028l-0.088,0.029l-0.086,0.029l-0.087,0.029
			l-0.059,0.029l-0.086,0.028L23.017,4.21L22.931,4.24l-0.086,0.029l-0.088,0.029l-0.059,0.029l-0.086,0.028l-0.056,0.029
			L22.47,4.414l-0.088,0.031l-0.059,0.028l-0.092,0.028l-0.087,0.029l-0.059,0.028l-0.087,0.028L21.94,4.617l-0.087,0.028
			l-0.059,0.03l-0.087,0.029l-0.059,0.029l-0.059,0.028l-0.087,0.028L21.445,4.82l-0.058,0.029l-0.086,0.029l-0.059,0.029
			l-0.059,0.028l-0.087,0.029l-0.059,0.028L20.98,5.023l-0.087,0.029l-0.059,0.029l-0.06,0.029l-0.058,0.028L20.63,5.167
			l-0.058,0.029l-0.059,0.029l-0.059,0.029l-0.059,0.029l-0.059,0.028l-0.087,0.03l-0.058,0.027L20.135,5.4l-0.059,0.029
			l-0.059,0.029l-0.059,0.029l-0.058,0.028l-0.059,0.028l-0.059,0.029l-0.059,0.028L19.667,5.63L19.609,5.66l-0.059,0.028
			l-0.059,0.029l-0.059,0.028l-0.058,0.029l-0.058,0.029l-0.054,0.031l-0.059,0.029l-0.058,0.028l-0.06,0.028l-0.058,0.029
			L18.973,5.98l-0.059,0.029l-0.058,0.029l-0.04,0.029l-0.059,0.028l-0.059,0.028l-0.028,0.029l-0.059,0.029l-0.058,0.029
			l-0.059,0.029L18.438,6.27l-0.059,0.029l-0.028,0.028l-0.059,0.029l-0.059,0.029l-0.053,0.029l-0.058,0.029l-0.028,0.028
			l-0.06,0.028l-0.058,0.029L17.919,6.56L17.86,6.589l-0.028,0.029l-0.059,0.028l-0.059,0.029l-0.059,0.028l-0.028,0.029
			L17.57,6.763l-0.058,0.029l-0.029,0.029L17.425,6.85l-0.058,0.028l-0.028,0.029L17.28,6.937l-0.058,0.029l-0.059,0.029
			l-0.028,0.028l-0.059,0.029l-0.059,0.028L16.99,7.111L16.932,7.14l-0.029,0.029l-0.058,0.029l-0.059,0.028l-0.03,0.028
			l-0.058,0.029L16.64,7.314l-0.023,0.029l-0.058,0.029L16.53,7.402L16.473,7.43l-0.059,0.028l-0.028,0.029l-0.06,0.029
			l-0.028,0.029l-0.059,0.029l-0.028,0.028l-0.059,0.029l-0.058,0.028l-0.028,0.029L16.008,7.72l-0.028,0.027l-0.059,0.029
			l-0.028,0.029l-0.058,0.029l-0.028,0.029l-0.059,0.028l-0.028,0.03l-0.059,0.029l-0.029,0.028L15.573,8.01l-0.028,0.028
			l-0.059,0.029l-0.027,0.028L15.4,8.125l-0.028,0.029l-0.056,0.029l-0.028,0.029l-0.059,0.029L15.2,8.271L15.143,8.3L15.113,8.33
			l-0.028,0.029l-0.059,0.028l-0.028,0.028l-0.059,0.029L14.91,8.474l-0.058,0.029l-0.029,0.029l-0.028,0.028L14.736,8.59
			l-0.028,0.028l-0.059,0.029l-0.028,0.029l-0.028,0.029l-0.06,0.029l-0.028,0.028l-0.059,0.028l-0.027,0.029l-0.027,0.029
			l-0.059,0.027l-0.028,0.029l-0.029,0.029l-0.06,0.028l-0.028,0.028l-0.059,0.029l-0.027,0.029l-0.029,0.029l-0.058,0.029
			l-0.029,0.028l-0.028,0.028l-0.059,0.029l-0.029,0.029l-0.028,0.029l-0.059,0.029l-0.028,0.028l-0.028,0.029l-0.059,0.028
			l-0.028,0.031L13.609,9.43l-0.058,0.028l-0.029,0.029l-0.029,0.029l-0.028,0.029l-0.059,0.029l-0.028,0.028L13.35,9.633
			l-0.059,0.028l-0.028,0.029L13.233,9.72L13.204,9.75l-0.058,0.029l-0.029,0.028l-0.028,0.028l-0.028,0.029l-0.059,0.029
			l-0.028,0.029l-0.029,0.029l-0.028,0.028l-0.028,0.029l-0.029,0.028l-0.058,0.029l-0.028,0.029l-0.029,0.029l-0.028,0.029
			l-0.028,0.028l-0.029,0.028l-0.028,0.029l-0.028,0.029L12.571,10.3l-0.058,0.029l-0.029,0.028l-0.029,0.029l-0.027,0.028
			l-0.029,0.029l-0.028,0.029l-0.027,0.029l-0.029,0.029l-0.028,0.028l-0.028,0.028l-0.028,0.029l-0.029,0.029l-0.028,0.029
			l-0.028,0.029l-0.029,0.029l-0.029,0.028l-0.027,0.028l-0.04,0.029l-0.029,0.029l-0.028,0.029l-0.028,0.029l-0.029,0.028
			l-0.028,0.029l-0.028,0.028l-0.029,0.029l-0.029,0.029l-0.028,0.029l-0.027,0.029l-0.029,0.028l-0.028,0.028l-0.028,0.029
			l-0.029,0.028l-0.027,0.028l-0.028,0.029l-0.029,0.029l-0.028,0.029l-0.028,0.029l-0.029,0.029l-0.029,0.027l-0.027,0.029
			l-0.029,0.029l-0.029,0.059l-0.027,0.029l-0.029,0.028l-0.029,0.029l-0.028,0.028l-0.027,0.029l-0.029,0.029L11.13,11.75
			l-0.028,0.029l-0.029,0.028l-0.029,0.028l-0.027,0.029l-0.029,0.059l-0.029,0.029l-0.027,0.028L10.9,12.01l-0.029,0.03
			l-0.027,0.029l-0.029,0.027l-0.029,0.029l-0.029,0.058l-0.027,0.028L10.7,12.242l-0.029,0.029L10.644,12.3l-0.029,0.029
			l-0.029,0.028l-0.027,0.058l-0.029,0.029l-0.029,0.028l-0.026,0.028l-0.029,0.029l-0.029,0.029l-0.027,0.059l-0.029,0.028
			l-0.028,0.029l-0.028,0.028l-0.028,0.029l-0.029,0.029l-0.029,0.059l-0.027,0.028l-0.029,0.028l-0.029,0.029l-0.026,0.029
			l-0.029,0.059l-0.029,0.028l-0.028,0.029l-0.027,0.028l-0.029,0.029L9.93,13.169l-0.028,0.029l-0.029,0.028l-0.028,0.028
			l-0.028,0.029l-0.028,0.059l-0.028,0.029l-0.029,0.028L9.701,13.43l-0.029,0.058l-0.028,0.029l-0.028,0.029l-0.029,0.027
			l-0.027,0.059L9.53,13.662l-0.029,0.029L9.473,13.72l-0.027,0.059l-0.029,0.028l-0.028,0.028l-0.028,0.029L9.33,13.923
			l-0.028,0.029l-0.029,0.028L9.244,14.01l-0.029,0.058l-0.028,0.029l-0.028,0.029l-0.029,0.058l-0.028,0.028l-0.028,0.029
			l-0.029,0.029L9.015,14.33l-0.028,0.028l-0.029,0.029l-0.028,0.058l-0.029,0.029l-0.028,0.027l-0.028,0.06l-0.029,0.028
			l-0.028,0.029l-0.029,0.057l-0.028,0.031l-0.028,0.028L8.67,14.792l-0.028,0.029l-0.028,0.029L8.585,14.91l-0.028,0.028
			l-0.029,0.028l-0.028,0.059l-0.028,0.029l-0.029,0.029l-0.032,0.058L8.38,15.169l-0.028,0.059l-0.029,0.029l-0.027,0.029
			l-0.028,0.058l-0.029,0.028l-0.028,0.029L8.181,15.46L8.151,15.49l-0.028,0.057l-0.028,0.029l-0.029,0.059l-0.027,0.029
			L8.01,15.692L7.98,15.75l-0.029,0.029l-0.028,0.057l-0.028,0.029l-0.029,0.029l-0.028,0.059L7.81,15.981L7.78,16.039l-0.028,0.029
			l-0.028,0.059l-0.029,0.029l-0.029,0.057l-0.027,0.029L7.607,16.3L7.578,16.33l-0.027,0.029l-0.029,0.059l-0.028,0.028
			l-0.029,0.058l-0.028,0.029l-0.028,0.059l-0.028,0.029l-0.028,0.057l-0.029,0.029l-0.029,0.059l-0.027,0.029l-0.029,0.058
			L7.206,16.88l-0.027,0.059l-0.029,0.059L7.12,17.026l-0.027,0.058l-0.029,0.029l-0.029,0.059l-0.026,0.029l-0.03,0.057
			l-0.029,0.031L6.92,17.346l-0.027,0.058l-0.029,0.029l-0.029,0.059L6.807,17.52l-0.029,0.058l-0.029,0.059l-0.027,0.029
			l-0.029,0.058l-0.029,0.028l-0.027,0.06l-0.028,0.058l-0.029,0.029l-0.028,0.059L6.52,18.011L6.49,18.041l-0.029,0.058
			l-0.027,0.06l-0.028,0.028l-0.089,0.058l-0.028,0.058L6.259,18.33l-0.027,0.059l-0.029,0.059l-0.028,0.057l-0.028,0.029
			l-0.029,0.059l-0.028,0.058L6.06,18.678L6.03,18.736l-0.028,0.059l-0.028,0.058L5.944,18.91l-0.027,0.029l-0.028,0.059
			l-0.029,0.058l-0.029,0.06l-0.027,0.057l-0.029,0.029l-0.029,0.059l-0.028,0.059l-0.028,0.057l-0.029,0.058L5.63,19.49
			l-0.028,0.059l-0.029,0.029l-0.029,0.058l-0.027,0.058l-0.029,0.059l-0.029,0.058L5.43,19.867L5.4,19.925l-0.028,0.058
			l-0.027,0.06L5.315,20.1l-0.029,0.058l-0.028,0.06l-0.028,0.058L5.2,20.333l-0.029,0.059l-0.027,0.059l-0.029,0.057l-0.028,0.087
			l-0.027,0.06L5.029,20.71L5,20.769l-0.027,0.059l-0.029,0.058l-0.029,0.087l-0.027,0.059l-0.029,0.057l-0.028,0.088l-0.03,0.058
			l-0.026,0.058l-0.029,0.088l-0.029,0.058l-0.027,0.058l-0.029,0.088L4.628,21.64l-0.027,0.087l-0.029,0.087l-0.028,0.059
			l-0.027,0.086l-0.029,0.059l-0.029,0.087l-0.028,0.087L4.4,22.277l-0.029,0.088l-0.028,0.057l-0.028,0.088l-0.028,0.087
			l-0.03,0.116L4.229,22.8L4.2,22.887l-0.029,0.116l-0.027,0.086l-0.029,0.117l-0.029,0.115l-0.028,0.116l-0.028,0.116l-0.029,0.115
			l-0.054,0.146L3.916,23.99l-0.028,0.146l-0.029,0.202L3.83,24.57v0.463h12.99l0.029-0.058l0.028-0.116l0.028-0.145l0.029-0.116
			l0.028-0.146l0.028-0.115l0.029-0.145l0.028-0.117l0.029-0.145l0.028-0.115l0.029-0.146l0.028-0.115l0.028-0.145l0.029-0.146
			l0.028-0.116l0.028-0.145l0.028-0.116l0.029-0.146l0.027-0.117l0.029-0.145l0.028-0.115l0.029-0.146l0.028-0.116l0.028-0.145
			l0.029-0.116l0.028-0.146l0.029-0.115l0.027-0.146l0.028-0.116l0.029-0.145l0.028-0.116l0.029-0.146l0.028-0.115l0.028-0.145
			l0.029-0.146l0.028-0.116l0.028-0.146l0.028-0.115v-0.09l-0.955-0.029l-3.13-0.001l0.032-0.058l0.028-0.086l0.029-0.088
			l0.028-0.058l0.029-0.087l0.028-0.059l0.029-0.058l0.028-0.058l0.028-0.059l0.028-0.058l0.043-0.029l0.029-0.058l0.028-0.059
			l0.028-0.058l0.029-0.028l0.028-0.06l0.029-0.028l0.028-0.058l0.029-0.029l0.028-0.058l0.027-0.029l0.029-0.059l0.028-0.028
			l0.028-0.058l0.029-0.029l0.028-0.029l0.028-0.058l0.029-0.029l0.028-0.028l0.029-0.059l0.028-0.029l0.028-0.029l0.029-0.028
			l0.028-0.058l0.029-0.029l0.028-0.029l0.028-0.059l0.029-0.028l0.028-0.028l0.027-0.029l0.029-0.03l0.028-0.058l0.029-0.029
			l0.028-0.029l0.028-0.029l0.029-0.028l0.028-0.029l0.028-0.058l0.029-0.028l0.028-0.028l0.029-0.029l0.028-0.029l0.028-0.029
			l0.029-0.029l0.028-0.028l0.029-0.029l0.027-0.028l0.029-0.059l0.028-0.029l0.028-0.029l0.028-0.028l0.029-0.028l0.028-0.029
			l0.028-0.029l0.028-0.029l0.028-0.029l0.028-0.029l0.029-0.028l0.029-0.028l0.028-0.029l0.027-0.029l0.029-0.029l0.028-0.029
			l0.028-0.028l0.029-0.028l0.028-0.029l0.028-0.029l0.028-0.029l0.028-0.029l0.028-0.027l0.029-0.029l0.028-0.029l0.027-0.027
			l0.029-0.029l0.029-0.029l0.027-0.029l0.029-0.028l0.029-0.028l0.028-0.029l0.028-0.029l0.029-0.029l0.028-0.029l0.028-0.028
			l0.029-0.029l0.029-0.028l0.027-0.029l0.028-0.029l0.029-0.029l0.027-0.029l0.029-0.028l0.059-0.028l0.028-0.029l0.029-0.029
			l0.029-0.029l0.027-0.029l0.029-0.029l0.029-0.028l0.027-0.028l0.029-0.029l0.029-0.029l0.058-0.029l0.029-0.029l0.027-0.028
			l0.029-0.029l0.029-0.028l0.029-0.029l0.027-0.028l0.028-0.028l0.03-0.029l0.057-0.029l0.029-0.029l0.027-0.029l0.029-0.027
			l0.029-0.029l0.027-0.029l0.06-0.029l0.027-0.029l0.028-0.029l0.029-0.028l0.029-0.029l0.027-0.028l0.029-0.029l0.058-0.029
			l0.029-0.029l0.029-0.029l0.026-0.028l0.029-0.028l0.06-0.029l0.027-0.029l0.029-0.029l0.029-0.029l0.027-0.029l0.059-0.028
			l0.028-0.028l0.028-0.029l0.029-0.029l0.027-0.029l0.06-0.029l0.028-0.028l0.028-0.029l0.059-0.028l0.028-0.029l0.029-0.029
			l0.029-0.027l0.058-0.029l0.029-0.03l0.028-0.028l0.028-0.029l0.059-0.029l0.027-0.027l0.029-0.029l0.028-0.029l0.059-0.028
			l0.029-0.028l0.027-0.029l0.06-0.029l0.028-0.029l0.028-0.029l0.059-0.028l0.028-0.028l0.029-0.029l0.058-0.029l0.029-0.029
			l0.029-0.029l0.058-0.028l0.029-0.029l0.027-0.028l0.059-0.029l0.028-0.029l0.059-0.029l0.028-0.029l0.028-0.028l0.06-0.028
			l0.028-0.029l0.028-0.029l0.059-0.029l0.028-0.029l0.059-0.028l0.028-0.029l0.06-0.028l0.027-0.029l0.06-0.029l0.028-0.029
			l0.059-0.029l0.028-0.027l0.059-0.029l0.028-0.029l0.059-0.028l0.062-0.032l0.028-0.029l0.059-0.029l0.029-0.028l0.059-0.028
			l0.058-0.029l0.029-0.028l0.058-0.028l0.059-0.029l0.059-0.029l0.029-0.027l0.058-0.029l0.059-0.029l0.028-0.029l0.059-0.029
			l0.059-0.029l0.06-0.028l0.027-0.028l0.059-0.029l0.059-0.029l0.057-0.029l0.059-0.029l0.028-0.028l0.06-0.029l0.058-0.028
			l0.059-0.029l0.059-0.029l0.058-0.029l0.029-0.029l0.058-0.028l0.06-0.028l0.058-0.029l0.059-0.029l0.059-0.029l0.058-0.027
			l0.06-0.029l0.058-0.029l0.029-0.029l0.058-0.029l0.06-0.028l0.058-0.028l0.058-0.029l0.06-0.029l0.058-0.029l0.06-0.029
			l0.058-0.028l0.058-0.029l0.06-0.028l0.058-0.028l0.087-0.03l0.06-0.029l0.058-0.029l0.058-0.028l0.06-0.028l0.058-0.029
			l0.06-0.028l0.058-0.028l0.086-0.029l0.058-0.029l0.06-0.029l0.058-0.029l0.086-0.028l0.06-0.029l0.058-0.028l0.059-0.029
			l0.088-0.029l0.057-0.029l0.058-0.029l0.087-0.028l0.06-0.03l0.086-0.027l0.058-0.029l0.087-0.029l0.06-0.029l0.087-0.029
			l0.058-0.028l0.087-0.028l0.087-0.029l0.06-0.029l0.086-0.027l0.058-0.029l0.087-0.029l0.087-0.029l0.087-0.029L25.403,11
			l0.087-0.029l0.087-0.028l0.087-0.029l0.087-0.029l0.086-0.029l0.087-0.029l0.087-0.028l0.116-0.028l0.087-0.029l0.087-0.029
			l0.115-0.029l0.087-0.029l0.116-0.028l0.114-0.029l0.115-0.028l0.115-0.029l0.116-0.029l0.116-0.029l0.114-0.029l0.116-0.028
			l0.146-0.028l0.145-0.029l0.146-0.029l0.144-0.029l0.174-0.029l0.174-0.029l0.175-0.028l0.229-0.028l0.202-0.029l0.261-0.029
			c0,0,0.333-0.044,0.318-0.029c3.155-0.343,5.729,0,5.729,0l0.318,0.029l0.289,0.029l0.23,0.029l0.202,0.028l0.202,0.028
			l0.173,0.029l0.176,0.029l0.145,0.029l0.146,0.029l0.146,0.029l0.146,0.028l0.146,0.028l0.115,0.029l0.145,0.029l0.115,0.029
			l0.115,0.029l0.116,0.028l0.114,0.029l0.086,0.028l0.117,0.029l0.086,0.029l0.115,0.029l0.088,0.029l0.115,0.028l0.088,0.028
			l0.086,0.029l0.086,0.029l0.117,0.029l0.086,0.029l0.086,0.028L39.552,11l0.088,0.028l0.059,0.029l0.086,0.029l0.088,0.029
			l0.086,0.029l0.088,0.027l0.057,0.029l0.089,0.029l0.086,0.028l0.06,0.028l0.086,0.029l0.06,0.029l0.088,0.029l0.058,0.029
			l0.088,0.027l0.057,0.03l0.061,0.028l0.088,0.029l0.057,0.029l0.061,0.029l0.086,0.029l0.059,0.028l0.058,0.029l0.089,0.028
			l0.057,0.029l0.06,0.029l0.06,0.029l0.057,0.029l0.061,0.028l0.086,0.028l0.059,0.029l0.06,0.028l0.046,0.026l0.059,0.029
			l0.061,0.028l0.057,0.03l0.059,0.029l0.059,0.027l0.059,0.029l0.061,0.029l0.057,0.029l0.059,0.028l0.061,0.028l0.057,0.029
			l0.061,0.029l0.027,0.029l0.059,0.029l0.059,0.028l0.06,0.029l0.058,0.028l0.059,0.028l0.029,0.029l0.057,0.028l0.061,0.029
			l0.059,0.029l0.058,0.029l0.028,0.029l0.061,0.028l0.057,0.028l0.06,0.029l0.028,0.029l0.058,0.029l0.06,0.029l0.029,0.028
			l0.057,0.029l0.06,0.028l0.028,0.029l0.06,0.029l0.058,0.029l0.028,0.029l0.06,0.028l0.058,0.028l0.028,0.029l0.06,0.029
			l0.028,0.028l0.058,0.028l0.06,0.029l0.029,0.029l0.057,0.029l0.029,0.027l0.059,0.029l0.027,0.029L44.44,13.4l0.029,0.028
			l0.06,0.028l0.026,0.029l0.06,0.029l0.028,0.029l0.058,0.027l0.028,0.029l0.06,0.029l0.028,0.029l0.058,0.029l0.029,0.028
			l0.06,0.028l0.028,0.029l0.026,0.029l0.06,0.029l0.028,0.029l0.06,0.028l0.026,0.029l0.029,0.028l0.06,0.029l0.028,0.029
			l0.058,0.029l0.028,0.029l0.029,0.028l0.059,0.028l0.027,0.029l0.028,0.029l0.06,0.029l0.029,0.029l0.026,0.028l0.06,0.029
			l0.028,0.028l0.028,0.029l0.058,0.029l0.028,0.029l0.029,0.029l0.059,0.028l0.027,0.028L46,14.529l0.028,0.028l0.061,0.028
			l0.026,0.029l0.028,0.028l0.06,0.029l0.028,0.03l0.029,0.029l0.026,0.027l0.06,0.029l0.029,0.029l0.027,0.028l0.029,0.028
			l0.027,0.029l0.059,0.029l0.029,0.029l0.028,0.029l0.026,0.029l0.029,0.028l0.059,0.028l0.029,0.029l0.029,0.029l0.025,0.029
			l0.029,0.029l0.059,0.028l0.029,0.029l0.027,0.028l0.028,0.029l0.028,0.029l0.029,0.029l0.057,0.029l0.029,0.028l0.028,0.028
			l0.028,0.029l0.029,0.029l0.029,0.029l0.025,0.029l0.029,0.028l0.059,0.03l0.029,0.027l0.027,0.029l0.027,0.029l0.029,0.029
			l0.029,0.029l0.028,0.028l0.028,0.028l0.027,0.029l0.028,0.028l0.06,0.028l0.029,0.029l0.025,0.029l0.029,0.029l0.029,0.029
			l0.027,0.029l0.029,0.028l0.029,0.028l0.025,0.029l0.029,0.029l0.029,0.029l0.027,0.029l0.029,0.028l0.027,0.029l0.027,0.028
			l0.029,0.029l0.029,0.029l0.029,0.029l0.025,0.029l0.029,0.028l0.029,0.028l0.027,0.029l0.029,0.029l0.029,0.029l0.025,0.029
			l0.029,0.028l0.029,0.029l0.027,0.028l0.029,0.029l0.029,0.029l0.025,0.029l0.029,0.027l0.029,0.029l0.028,0.029l0.028,0.027
			l0.027,0.029l0.028,0.029l0.028,0.029l0.029,0.028l0.028,0.029l0.026,0.028l0.029,0.029l0.029,0.029l0.027,0.029l0.029,0.029
			l0.029,0.028l0.025,0.058l0.029,0.029l0.029,0.029l0.028,0.029l0.028,0.028l0.027,0.029l0.028,0.028l0.028,0.029l0.029,0.029
			l0.028,0.029l0.026,0.058l0.029,0.028l0.028,0.029l0.028,0.029l0.029,0.029l0.028,0.029l0.026,0.028l0.029,0.029l0.028,0.058
			l0.029,0.029l0.028,0.029l0.029,0.029l0.026,0.028l0.028,0.028l0.029,0.059l0.028,0.028l0.028,0.03L49.7,18.15l0.028,0.028
			l0.028,0.058l0.029,0.029l0.028,0.029l0.026,0.029l0.029,0.028l0.028,0.058l0.028,0.029l0.029,0.029l0.028,0.029l0.027,0.058
			l0.028,0.028l0.028,0.029l0.029,0.029l0.028,0.029l0.028,0.058l0.027,0.029l0.028,0.028l0.028,0.059l0.029,0.029l0.028,0.029
			l0.026,0.028l0.029,0.058l0.028,0.029l0.029,0.029l0.028,0.059l0.027,0.029l0.028,0.027l0.028,0.06l0.029,0.028l0.028,0.029
			l0.028,0.059l0.027,0.029l0.028,0.028l0.028,0.058l0.029,0.029l0.026,0.029l0.028,0.059l0.062,0.034l0.028,0.058l0.028,0.029
			l0.029,0.029l0.029,0.059l0.025,0.028l0.029,0.058l0.029,0.029l0.027,0.029l0.029,0.059l0.027,0.028l0.027,0.058l0.029,0.029
			l0.029,0.059l0.027,0.028l0.029,0.058l0.027,0.029l0.027,0.059l0.029,0.029l0.029,0.028l0.028,0.058l0.026,0.059l0.029,0.029
			l0.028,0.058l0.028,0.03l0.029,0.058l0.029,0.028l0.025,0.059l0.029,0.029l0.029,0.058l0.027,0.058l0.029,0.029L51.744,21
			l0.027,0.029l0.029,0.057l0.029,0.059l0.027,0.029l0.027,0.058l0.029,0.029l0.028,0.058l0.028,0.059L52,21.434l0.028,0.028
			l0.026,0.059l0.029,0.059l0.028,0.028l0.028,0.058l0.027,0.059l0.03,0.029l0.026,0.058l0.029,0.058l0.029,0.059l0.027,0.059
			l0.029,0.028l0.027,0.058l0.028,0.059l0.028,0.058l0.029,0.058l0.026,0.059l0.028,0.029l0.029,0.058l0.028,0.06l0.028,0.057
			l0.029,0.058l0.028,0.058l0.026,0.059l0.029,0.059l0.028,0.059l0.028,0.058l0.027,0.058l0.03,0.06l0.026,0.058l0.029,0.059
			l0.028,0.058l0.029,0.058l0.028,0.059l0.026,0.059l0.029,0.057l0.028,0.059l0.029,0.059l0.028,0.086l0.026,0.059l0.029,0.059
			l0.028,0.057l0.028,0.088l0.029,0.058l0.026,0.058l0.028,0.059l0.029,0.087l0.028,0.058l0.029,0.088l0.026,0.058l0.028,0.058
			l0.029,0.088l0.028,0.057l0.028,0.088l0.027,0.059l0.03,0.086l0.026,0.059l0.029,0.087l0.028,0.086l0.028,0.058l0.027,0.088
			l0.028,0.088l0.028,0.086l0.029,0.059l0.029,0.087l0.028,0.087l0.026,0.087l0.029,0.087l0.028,0.088l0.028,0.086l0.029,0.088
			l0.026,0.115l0.028,0.086l0.029,0.088l0.028,0.086l0.028,0.115l0.029,0.116l0.026,0.087l0.028,0.116l0.029,0.087l0.029,0.116
			l0.027,0.116l0.027,0.115l0.029,0.116l0.027,0.146l0.029,0.115l0.029,0.146l0.028,0.116l0.026,0.145l0.029,0.174l0.028,0.146
			l0.028,0.174l0.027,0.174l0.028,0.175l0.028,0.203l0.029,0.202l0.029,0.261l0.027,0.291l0.027,0.348l0.029,0.521v1.422
			l-0.029,0.664l-0.027,0.438l-0.027,0.377l-0.029,0.289l-0.029,0.289l-0.028,0.262l-0.028,0.23l-0.027,0.201l-0.028,0.203
			l-0.028,0.203l-0.029,0.174l-0.026,0.174l-0.028,0.176l-0.029,0.176l-0.029,0.146l-0.027,0.145l-0.029,0.145l-0.027,0.146
			l-0.027,0.146l-0.029,0.146l-0.029,0.114l-0.028,0.146l-0.026,0.117l-0.029,0.114l-0.028,0.115l-0.028,0.116l-0.029,0.146
			l-0.028,0.086l-0.026,0.117l-0.029,0.115l-0.028,0.116l-0.028,0.086l-0.029,0.117l-0.026,0.086l-0.028,0.115l-0.029,0.088
			l-0.029,0.114l-0.028,0.088l-0.028,0.087l-0.027,0.088l-0.028,0.114l-0.028,0.089l-0.029,0.086l-0.026,0.088l-0.03,0.088
			l-0.027,0.086L53.5,39.619l-0.028,0.086l-0.029,0.088l-0.028,0.086l-0.026,0.06l-0.029,0.086l-0.028,0.088l-0.029,0.089
			l-0.028,0.057l-0.026,0.088l-0.029,0.087l-0.028,0.059l-0.028,0.087l-0.029,0.088l-0.026,0.06l-0.028,0.086l-0.029,0.06
			l-0.028,0.086l-0.029,0.06l-0.026,0.088l-0.028,0.058l-0.029,0.059l-0.028,0.086l-0.029,0.06l-0.026,0.089l-0.03,0.057
			l-0.027,0.06l-0.028,0.06l-0.028,0.086l-0.029,0.06l-0.026,0.06l-0.028,0.086l-0.029,0.06l-0.028,0.06l-0.028,0.057l-0.029,0.06
			l-0.028,0.06l-0.026,0.058l-0.029,0.088l-0.028,0.058l-0.028,0.06l-0.027,0.06l-0.029,0.059l-0.027,0.058l-0.029,0.06l-0.029,0.06
			l-0.026,0.058l-0.03,0.059l-0.027,0.06l-0.028,0.058l-0.028,0.06l-0.029,0.06l-0.026,0.057L52,43.243l-0.029,0.06l-0.028,0.029
			l-0.028,0.057l-0.029,0.06l-0.027,0.06l-0.027,0.058l-0.029,0.06l-0.029,0.059l-0.027,0.029l-0.027,0.057l-0.029,0.061
			l-0.027,0.059l-0.029,0.058l-0.029,0.028l-0.025,0.06l-0.029,0.06l-0.029,0.057l-0.028,0.029l-0.028,0.059l-0.029,0.061
			l-0.026,0.026l-0.028,0.06l-0.029,0.06l-0.029,0.026l-0.027,0.06l-0.027,0.06l-0.029,0.028l-0.027,0.058l-0.029,0.059
			l-0.029,0.029l-0.027,0.059l-0.027,0.059l-0.029,0.028l-0.027,0.06l-0.029,0.029l-0.029,0.057l-0.025,0.029l-0.029,0.059
			l-0.029,0.06l-0.028,0.029l-0.028,0.026l-0.029,0.029l-0.029,0.059l-0.025,0.029l-0.029,0.057l-0.029,0.029l-0.027,0.061
			l-0.027,0.027l-0.029,0.059l-0.027,0.027l-0.029,0.061l-0.029,0.027l-0.028,0.059l-0.026,0.027l-0.029,0.029l-0.028,0.061
			l-0.033,0.027l-0.029,0.059l-0.026,0.027l-0.028,0.061l-0.029,0.027l-0.029,0.027l-0.027,0.061l-0.027,0.027l-0.029,0.061
			l-0.028,0.027l-0.028,0.027l-0.029,0.059l-0.028,0.029l-0.026,0.029l-0.029,0.057l-0.028,0.029l-0.028,0.029l-0.029,0.059
			l-0.028,0.029l-0.026,0.027l-0.029,0.059l-0.028,0.029l-0.028,0.029l-0.029,0.027l-0.026,0.059l-0.029,0.027l-0.028,0.029
			l-0.028,0.059l-0.029,0.029l-0.026,0.027L49.53,47.08l-0.028,0.059l-0.028,0.029l-0.029,0.029l-0.028,0.029v0.034l-0.028,0.028
			l-0.029,0.029l-0.028,0.028l-0.028,0.028l-0.029,0.058l-0.027,0.028l-0.028,0.029l-0.028,0.028l-0.029,0.028l-0.028,0.058
			l-0.026,0.029l-0.029,0.028l-0.028,0.029l-0.028,0.028l-0.029,0.026l-0.026,0.06l-0.028,0.028l-0.029,0.029l-0.045,0.034
			l-0.029,0.029l-0.027,0.028l-0.027,0.027l-0.029,0.059L48.72,48.07l-0.029,0.029l-0.029,0.025l-0.025,0.029l-0.029,0.028
			l-0.029,0.028l-0.028,0.029l-0.028,0.029l-0.027,0.057l-0.028,0.029l-0.028,0.028l-0.029,0.028l-0.029,0.028l-0.027,0.029
			l-0.027,0.028l-0.029,0.027l-0.027,0.029l-0.029,0.027l-0.029,0.029l-0.027,0.028l-0.027,0.028l-0.029,0.027l-0.027,0.029
			l-0.029,0.027l-0.029,0.029l-0.025,0.028l-0.029,0.028l-0.029,0.027l-0.029,0.029l-0.027,0.029l-0.027,0.027l-0.029,0.028
			l-0.027,0.029v0.058h-0.061l-0.027,0.028l-0.027,0.028l-0.029,0.029l-0.027,0.029l-0.029,0.027l-0.029,0.027l-0.025,0.028
			l-0.029,0.028l-0.029,0.029l-0.028,0.029l-0.028,0.029l-0.029,0.025l-0.026,0.028l-0.028,0.028l-0.029,0.029l-0.028,0.029
			l-0.028,0.029l-0.027,0.027l-0.059,0.027l-0.029,0.028l-0.029,0.028L47.1,49.691l-0.026,0.029l-0.029,0.029l-0.028,0.025
			l-0.028,0.028l-0.029,0.028l-0.046,0.047l-0.059,0.029l-0.029,0.029l-0.029,0.029l-0.052,0.049l-0.028,0.029l-0.028,0.027
			l-0.029,0.029l-0.059,0.029l-0.027,0.029l-0.028,0.026l-0.028,0.028l-0.029,0.029l-0.057,0.027L46.399,50.3L46.37,50.33
			l-0.028,0.026l-0.028,0.028l-0.058,0.029l-0.028,0.027l-0.029,0.029L46.17,50.5l-0.028,0.029l-0.058,0.026l-0.028,0.028
			l-0.029,0.027l-0.029,0.029l-0.057,0.029l-0.029,0.029l-0.028,0.026l-0.06,0.028l-0.026,0.029l-0.028,0.027l-0.029,0.029
			l-0.059,0.029l-0.029,0.028l-0.026,0.026l-0.06,0.029l-0.029,0.027l-0.028,0.029l-0.058,0.029l-0.028,0.029l-0.028,0.026
			l-0.06,0.028l-0.026,0.029l-0.029,0.027l-0.059,0.029l-0.029,0.029l-0.057,0.026l-0.029,0.028l-0.029,0.029l-0.059,0.027
			l-0.027,0.029l-0.059,0.029l-0.029,0.028l-0.029,0.026l-0.057,0.029l-0.029,0.027l-0.059,0.029l-0.029,0.029l-0.057,0.028
			l-0.029,0.027l-0.059,0.028l-0.027,0.028l-0.059,0.028l-0.029,0.029l-0.06,0.029l-0.026,0.026l-0.06,0.028l-0.063,0.049
			l-0.027,0.029l-0.059,0.029l-0.029,0.029l-0.057,0.029l-0.029,0.025l-0.059,0.028l-0.061,0.028l-0.025,0.029l-0.061,0.029
			l-0.059,0.029l-0.027,0.025l-0.059,0.029l-0.061,0.027l-0.027,0.029l-0.059,0.029l-0.059,0.029l-0.029,0.025l-0.057,0.029
			l-0.061,0.027l-0.059,0.029l-0.058,0.029l-0.028,0.029l-0.06,0.029l-0.058,0.025l-0.059,0.029l-0.061,0.027l-0.026,0.029
			l-0.06,0.029l-0.059,0.029l-0.058,0.025l-0.06,0.029l-0.058,0.027l-0.06,0.029l-0.059,0.029l-0.058,0.029l-0.06,0.027l-0.06,0.029
			l-0.058,0.027l-0.059,0.027l-0.06,0.029l-0.058,0.029l-0.06,0.027l-0.058,0.027l-0.059,0.029l-0.049,0.042l-0.058,0.028
			l-0.088,0.029l-0.057,0.028l-0.061,0.028l-0.059,0.027l-0.086,0.028l-0.06,0.028L41.35,53.4l-0.06,0.028l-0.086,0.028l-0.06,0.027
			l-0.088,0.028l-0.058,0.029l-0.086,0.028l-0.06,0.028l-0.088,0.029l-0.058,0.026l-0.088,0.029l-0.058,0.028l-0.088,0.028
			l-0.086,0.029l-0.06,0.028l-0.086,0.028l-0.082,0.035l-0.086,0.029l-0.088,0.028l-0.086,0.028l-0.06,0.029l-0.086,0.028
			l-0.089,0.026l-0.114,0.029l-0.088,0.028l-0.086,0.028l-0.087,0.029l-0.088,0.028l-0.114,0.029l-0.086,0.026l-0.117,0.028
			l-0.115,0.029l-0.086,0.028l-0.116,0.029l-0.115,0.028L38.34,54.4l-0.115,0.029l-0.116,0.028l-0.146,0.028l-0.115,0.029
			l-0.146,0.028l-0.114,0.026l-0.175,0.029l-0.146,0.028l-0.146,0.028l-0.174,0.029l-0.203,0.029l-0.174,0.025l-0.203,0.029
			l-0.23,0.028l-0.23,0.029l-0.29,0.028L35.3,54.884l-0.376,0.028l-0.781,0.026l-0.353,0.029l0.033-0.087l0.027-0.088l0.029-0.114
			l0.028-0.117l0.028-0.115l0.029-0.086l0.028-0.116l0.029-0.114l0.028-0.117l0.028-0.086l0.029-0.115l0.028-0.117l0.027-0.114
			l0.029-0.117l0.028-0.086l0.028-0.114l0.028-0.117l0.028-0.115l0.029-0.088l0.028-0.114l0.029-0.117l0.028-0.114l0.028-0.086
			l0.028-0.117l0.028-0.115l0.028-0.116l0.029-0.115l0.028-0.086l0.031-0.108l0.029-0.115l0.029-0.116l0.028-0.086l0.028-0.115
			l0.029-0.116l0.028-0.115l0.028-0.088l0.029-0.115l0.028-0.114l0.028-0.117l0.029-0.114l0.028-0.088l0.028-0.115l0.028-0.117
			l0.029-0.114l0.027-0.086l0.029-0.117l0.029-0.114l0.027-0.117l0.029-0.086l0.029-0.115l0.028-0.116l0.028-0.115l0.029-0.116
			l0.028-0.086l0.027-0.117l0.029-0.115l0.029-0.114l0.027-0.088l0.029-0.115l0.029-0.114l0.027-0.117l0.029-0.086l0.029-0.117
			l0.027-0.114l0.028-0.115l0.029-0.116l0.028-0.088l0.028-0.115l0.029-0.115l0.029-0.116l0.027-0.086l0.028-0.115l0.029-0.116
			l0.026-0.115l0.029-0.088l0.029-0.115l0.027-0.116l0.028-0.115l0.029-0.114l0.026-0.088l0.029-0.115l0.029-0.117l0.026-0.114
			l0.033-0.095l0.029-0.117l0.029-0.114l0.027-0.116l0.028-0.086l0.029-0.115l0.027-0.116l0.028-0.115l0.029-0.116l0.028-0.087
			l0.027-0.116l0.029-0.115l0.028-0.115l0.028-0.088l0.029-0.115l0.026-0.113l0.028-0.117l0.029-0.086l0.028-0.117l0.028-0.114
			l0.027-0.117l0.028-0.114l0.028-0.089l0.029-0.114l0.029-0.115l0.028-0.117l0.026-0.086l0.029-0.115l0.028-0.115l0.028-0.115
			l0.029-0.088l0.028-0.115l0.026-0.116l0.029-0.115l0.028-0.114l0.028-0.088l0.029-0.115l0.026-0.117l0.028-0.115l0.029-0.086
			l0.028-0.117l0.029-0.113l0.026-0.117l0.028-0.086l0.029-0.115l0.028-0.116l0.029-0.115l0.028-0.088l0.026-0.114l0.029-0.115
			l0.028-0.117l0.028-0.115l0.029-0.088l0.026-0.115l0.028-0.113l0.029-0.117l0.028-0.114l0.028-0.089l0.029-0.114l0.026-0.115
			l0.029-0.116l0.028-0.115l0.028-0.088l0.029-0.115l0.026-0.117l0.028-0.115l0.029-0.086l0.028-0.115l0.028-0.115l0.029-0.117
			l0.026-0.114l0.028-0.088l0.029-0.115l0.028-0.114l0.029-0.117l0.026-0.115l0.029-0.086l0.028-0.117l0.028-0.115l0.029-0.115
			l0.028-0.115l0.026-0.088l0.029-0.115l0.028-0.114l0.028-0.116l0.029-0.115l0.026-0.088l0.028-0.115l0.029-0.115l0.028-0.117
			l0.028-0.113l0.027-0.088l0.029-0.115l0.027-0.115l0.029-0.116l0.029-0.087l0.027-0.116l0.027-0.114l0.029-0.115l0.027-0.117
			l0.029-0.086l0.029-0.117l0.026-0.115l0.028-0.113l0.029-0.115l0.028-0.088l0.028-0.117l0.029-0.114l0.026-0.114l0.028-0.117
			l0.029-0.086l0.029-0.115l0.025-0.117l0.029-0.115l0.029-0.115l0.027-0.088l0.029-0.113v-0.029v-0.028l0.029-0.028l0.027-0.029
			l0.027-0.027L39.6,33l0.027-0.027l0.029-0.061l0.027-0.027l0.027-0.029l0.029-0.025L39.77,32.8l0.029-0.029l0.027-0.029
			l0.027-0.059l0.029-0.027l0.027-0.029l0.029-0.027l0.057-0.029l0.029-0.027l0.059-0.029l0.061-0.028l0.057-0.028l0.061-0.027
			l0.113-0.029l0.09-0.027l0.145-0.029l0.23-0.028h0.811l0.318,0.028l0.23,0.029l0.172,0.027l0.174,0.029l0.146,0.027l0.117,0.028
			l0.145,0.028l0.086,0.029l0.115,0.027l0.088,0.029l0.061,0.027l0.086,0.029l0.059,0.027l0.086,0.029l0.061,0.028l0.057,0.028
			l0.059,0.029l0.061,0.027l0.057,0.027l0.061,0.029l0.027,0.029l0.059,0.027l0.059,0.029l0.029,0.027l0.057,0.028l0.029,0.028
			l0.059,0.029l0.029,0.028l0.027,0.028l0.059,0.029l0.029,0.027l0.027,0.027l0.029,0.029l0.027,0.028l0.027,0.028l0.061,0.029
			l0.028,0.027l0.026,0.028l0.029,0.028l0.029,0.028l0.027,0.028l0.029,0.029l0.029,0.027l0.025,0.059l0.029,0.029l0.029,0.027
			l0.027,0.029l0.029,0.029l0.027,0.057l0.027,0.029l0.029,0.028l0.029,0.06l0.027,0.026l0.029,0.06l0.027,0.029l0.027,0.059
			l0.029,0.027l0.029,0.059l0.028,0.059l0.026,0.059l0.029,0.031l0.028,0.057l0.028,0.06l0.029,0.086l0.029,0.06l0.025,0.057
			l0.029,0.088l0.029,0.061l0.027,0.086l0.029,0.088l0.027,0.086l0.027,0.117l0.029,0.113l0.029,0.115l0.028,0.174l0.028,0.264
			v0.726l-0.028,0.288l0.058,0.201l-0.029,0.174l-0.029,0.145l-0.027,0.115l-0.027,0.117l-0.029,0.115l-0.027,0.113l-0.029,0.09
			l-0.029,0.086l-0.025,0.115L45.4,38.171l-0.029,0.09l-0.027,0.086l-0.029,0.088l-0.029,0.086l-0.026,0.088l-0.028,0.059
			l-0.029,0.058l-0.029,0.088l-0.027,0.06l-0.027,0.059l-0.029,0.059l-0.027,0.059l-0.029,0.058l-0.029,0.06l-0.027,0.029
			l-0.027,0.059l-0.029,0.059l-0.027,0.059L44.861,39.4l-0.029,0.059l-0.025,0.058l-0.029,0.028l-0.029,0.06l-0.027,0.028
			l-0.029,0.058l-0.029,0.029l-0.026,0.06l-0.028,0.028l-0.029,0.058l-0.029,0.028l-0.027,0.028l-0.027,0.06l-0.029,0.029
			l-0.027,0.057l-0.029,0.029l-0.029,0.028l-0.027,0.06l-0.027,0.028l-0.029,0.027l-0.027,0.029l-0.029,0.059l-0.029,0.029
			l-0.026,0.025l-0.028,0.029l-0.029,0.028l-0.028,0.029l-0.028,0.06l-0.027,0.028l-0.028,0.026l-0.028,0.029l-0.029,0.029
			l-0.028,0.027l-0.028,0.029l-0.027,0.028l-0.028,0.026l-0.028,0.029l-0.029,0.029l-0.029,0.027l-0.025,0.029l-0.029,0.028
			l-0.029,0.028l-0.028,0.027l-0.06,0.029l-0.026,0.029l-0.028,0.027l-0.06,0.029l-0.028,0.028l-0.059,0.026l-0.028,0.029
			l-0.06,0.029l-0.057,0.027l-0.029,0.029l-0.059,0.028l-0.029,0.026l-0.057,0.029l-0.061,0.029l-0.028,0.029l-0.058,0.027
			l-0.059,0.028l-0.029,0.028l-0.057,0.027l-0.061,0.029l-0.059,0.029l-0.058,0.027l-0.06,0.029l-0.059,0.028l-0.087,0.026
			l-0.06,0.029l-0.057,0.029l-0.088,0.027l-0.059,0.029l-0.088,0.028l-0.057,0.026l-0.088,0.029l-0.086,0.029l-0.061,0.029
			l-0.086,0.027l-0.059,0.029l-0.088,0.027l-0.086,0.027l-0.087,0.029l-0.116,0.029l-0.115,0.027l-0.146,0.029l-0.175,0.027
			l-0.289,0.027h-0.926l-0.317-0.027l-0.202-0.027l-0.203-0.029h-0.027L38.8,42.203l-0.028,0.117l-0.029,0.115l-0.029,0.115
			l-0.025,0.087l-0.029,0.114l-0.029,0.117l-0.027,0.115l-0.029,0.117l-0.027,0.086l-0.028,0.115l-0.028,0.117l-0.029,0.113
			l-0.028,0.117l-0.028,0.086l-0.001,0.118l-0.029,0.114l-0.028,0.115l-0.028,0.117l-0.029,0.114l-0.026,0.086l-0.028,0.117
			l-0.029,0.114l-0.028,0.117l-0.028,0.115l-0.029,0.088l-0.027,0.114l-0.028,0.115l-0.028,0.116l-0.029,0.115l-0.028,0.088
			l-0.026,0.115l-0.029,0.114l-0.028,0.116l-0.028,0.115l-0.029,0.088l-0.028,0.115l-0.026,0.114l-0.029,0.117l-0.028,0.114
			L37.692,46.6l-0.029,0.114l-0.026,0.115l-0.028,0.116v0.086h3.877l0.577-0.026l0.291-0.028l0.229-0.029l0.203-0.028l0.174-0.029
			l0.146-0.028l0.146-0.028l0.146-0.029l0.115-0.026l0.114-0.028l0.117-0.029l0.086-0.028l0.115-0.026l0.088-0.031l0.114-0.026
			l0.089-0.028l0.086-0.029l0.086-0.028l0.088-0.028l0.06-0.029l0.086-0.026l0.086-0.028l0.06-0.029l0.088-0.029l0.058-0.028
			l0.088-0.028l0.058-0.026l0.088-0.029l0.058-0.028l0.06-0.029l0.06-0.028l0.057-0.028l0.088-0.029l0.058-0.026l0.06-0.028
			l0.06-0.029l0.058-0.029l0.059-0.027l0.06-0.029l0.042-0.034l0.06-0.028l0.029-0.029l0.057-0.027l0.06-0.029l0.058-0.029
			l0.06-0.029l0.028-0.026l0.06-0.028l0.058-0.027l0.059-0.029l0.029-0.029l0.058-0.029l0.06-0.026l0.028-0.028l0.058-0.029
			l0.028-0.027l0.06-0.029l0.06-0.029l0.026-0.026l0.06-0.028l0.028-0.029l0.058-0.027l0.028-0.029l0.06-0.029l0.028-0.026
			l0.058-0.029l0.029-0.028l0.028-0.029l0.06-0.027l0.026-0.029l0.06-0.029l0.028-0.026l0.029-0.028l0.057-0.029l0.029-0.027
			l0.028-0.029l0.06-0.029l0.027-0.028l0.028-0.026l0.028-0.029l0.06-0.028l0.026-0.028l0.029-0.029l0.059-0.028l0.029-0.027
			l0.028-0.028l0.026-0.028l0.029-0.028l0.06-0.029l0.028-0.029l0.027-0.028l0.028-0.026l0.028-0.029l0.06-0.027l0.026-0.029
			l0.029-0.029l0.028-0.026l0.028-0.028l0.029-0.029l0.028-0.028l0.027-0.028l0.059-0.029l0.029-0.026l0.028-0.028l0.029-0.029
			l0.026-0.028l0.028-0.028l0.029-0.029l0.028-0.028l0.028-0.027l0.027-0.028l0.028-0.028l0.028-0.029l0.029-0.028l0.028-0.029
			l0.027-0.028l0.028-0.026l0.028-0.029l0.029-0.028l0.028-0.028l0.028-0.029l0.027-0.028l0.028-0.028l0.028-0.027l0.029-0.028
			l0.028-0.028l0.026-0.029l0.029-0.028l0.028-0.028l0.028-0.027l0.029-0.028l0.027-0.029l0.028-0.028l0.028-0.06l0.029-0.026
			l0.028-0.029l0.028-0.028l0.027-0.028l0.028-0.029l0.028-0.028l0.029-0.026l0.028-0.029l0.028-0.059l0.027-0.029l0.028-0.028
			l0.028-0.029l0.029-0.057l0.029-0.029l0.025-0.028l0.029-0.029l0.029-0.028l0.027-0.058l0.029-0.028l0.027-0.028l0.027-0.029
			l0.029-0.028l0.029-0.058l0.028-0.028l0.028-0.029l0.027-0.06l0.028-0.028l0.028-0.026l0.029-0.06l0.029-0.028l0.027-0.029
			l0.027-0.057l0.029-0.029l0.027-0.028l0.029-0.06l0.029-0.029l0.025-0.057l0.029-0.029l0.029-0.059l0.027-0.029l0.029-0.028
			l0.027-0.058l0.027-0.029l0.029-0.059l0.029-0.029l0.028-0.057l0.028-0.029l0.027-0.059l0.029-0.029l0.027-0.058l0.029-0.06
			l0.027-0.028l0.027-0.06l0.029-0.026l0.029-0.06l0.027-0.028l0.029-0.06l0.029-0.058l0.025-0.028l0.029-0.06l0.029-0.06
			l0.028-0.058l0.028-0.028l0.027-0.06l0.028-0.058l0.028-0.059l0.029-0.029l0.028-0.06l0.028-0.057l0.027-0.06l0.028-0.06
			l0.028-0.058l0.029-0.06l0.029-0.06l0.025-0.057l0.029-0.029l0.029-0.059l0.027-0.06l0.029-0.058L51.6,39.74l0.026-0.06
			l0.028-0.058l0.029-0.06l0.028-0.06l0.028-0.057l0.027-0.06l0.028-0.089l0.028-0.057l0.029-0.06l0.028-0.088l0.026-0.058
			l0.029-0.06l0.028-0.086l0.028-0.06l0.029-0.088l0.028-0.058l0.027-0.088l0.028-0.086l0.028-0.06l0.029-0.088l0.026-0.086
			l0.031-0.088l0.026-0.058l0.028-0.089l0.029-0.114l0.028-0.088l0.028-0.087l0.027-0.088l0.028-0.086l0.028-0.088l0.029-0.115
			l0.026-0.116l0.028-0.114l0.029-0.089l0.028-0.114l0.029-0.115l0.028-0.146l0.028-0.114l0.027-0.146l0.028-0.146l0.028-0.146
			l0.029-0.146l0.026-0.203l0.03-0.174l0.027-0.23l0.028-0.262l0.028-0.289l0.029-0.492v-1.363l-0.029-0.232L52.9,32.541
			l-0.028-0.146l-0.027-0.115l-0.03-0.115l-0.026-0.086l-0.029-0.117l-0.028-0.059l-0.028-0.086l-0.027-0.087l-0.028-0.058
			l-0.028-0.088l-0.029-0.057l-0.028-0.059l-0.029-0.059l-0.028-0.058l-0.026-0.058l-0.029-0.059l-0.028-0.058l-0.028-0.058
			l-0.027-0.029l-0.028-0.059l-0.028-0.058l-0.029-0.028l-0.028-0.059l-0.026-0.059l-0.031-0.028l-0.026-0.029l-0.029-0.058
			l-0.028-0.029l-0.028-0.059l-0.027-0.029l-0.028-0.029l-0.029-0.058l-0.028-0.029l-0.028-0.028l-0.029-0.029l-0.026-0.059
			l-0.028-0.029l-0.029-0.028l-0.028-0.028l-0.028-0.029l-0.027-0.059l-0.028-0.029l-0.028-0.028l-0.029-0.029l-0.028-0.028
			L51.6,30.046l-0.029-0.029l-0.029-0.029l-0.027-0.029l-0.029-0.028l-0.029-0.028l-0.025-0.029L51.4,29.843l-0.029-0.029
			l-0.028-0.029l-0.028-0.028l-0.027-0.029l-0.028-0.028l-0.028-0.029l-0.029-0.029l-0.059-0.029l-0.027-0.029l-0.029-0.028
			l-0.027-0.028l-0.029-0.029L51,29.466l-0.057-0.029l-0.029-0.029l-0.028-0.028v-0.05l-0.06-0.028L50.8,29.273l-0.028-0.029
			l-0.06-0.029l-0.026-0.029l-0.029-0.029l-0.059-0.029l-0.029-0.028l-0.029-0.028l-0.057-0.029l-0.029-0.029l-0.059-0.029
			l-0.027-0.029l-0.059-0.028l-0.029-0.029l-0.057-0.028l-0.029-0.029l-0.06-0.029l-0.06-0.029l-0.026-0.029l-0.06-0.028
			l-0.028-0.028l-0.06-0.029l-0.058-0.029l-0.06-0.029l-0.028-0.029l-0.058-0.029l-0.059-0.028L49.58,28.49l-0.059-0.029l-0.06-0.03
			l-0.058-0.028l-0.059-0.029l-0.061-0.029l-0.057-0.029l-0.06-0.029l-0.06-0.028l-0.057-0.029l-0.061-0.028l-0.057-0.029
			l-0.088-0.029l-0.06-0.029l-0.058-0.029l-0.088-0.028l-0.058-0.028l-0.088-0.029l-0.058-0.029l-0.088-0.029l-0.086-0.029
			l-0.06-0.028L48.12,27.85l-0.088-0.028l-0.087-0.029l-0.088-0.029l-0.086-0.029l-0.088-0.029l-0.115-0.028l-0.086-0.028
			l-0.116-0.029l-0.115-0.029l-0.114-0.029l-0.115-0.029l-0.117-0.029l-0.145-0.028l-0.146-0.028l-0.146-0.029l-0.175-0.029
			l-0.174-0.029l-0.229-0.027L45.628,27.3l-0.403-0.029h-8.679v-0.145l-0.028-0.696l-0.028-0.319l-0.028-0.261l-0.028-0.202
			l-0.028-0.203l-0.028-0.146l-0.028-0.146l-0.028-0.145l-0.028-0.145l-0.028-0.117l-0.029-0.115l-0.027-0.087l-0.027-0.116
			l-0.029-0.087l-0.028-0.087l-0.027-0.116l-0.029-0.087l-0.028-0.059l-0.028-0.086l-0.028-0.086l-0.029-0.088l-0.034-0.07
			l-0.028-0.086l-0.028-0.059l-0.028-0.059l-0.028-0.057l-0.029-0.088l-0.028-0.058l-0.029-0.058l-0.028-0.059l-0.028-0.059
			l-0.028-0.057l-0.028-0.059l-0.029-0.059l-0.028-0.028l-0.028-0.058l-0.029-0.059l-0.028-0.059l-0.028-0.028l-0.029-0.058
			l-0.027-0.059l-0.028-0.027l-0.029-0.06l-0.029-0.028l-0.027-0.059l-0.029-0.029l-0.029-0.058l-0.028-0.029l-0.028-0.028
			l-0.029-0.059l-0.026-0.027l-0.028-0.029l-0.028-0.059l-0.029-0.029l-0.027-0.028l-0.029-0.028l-0.04-0.059l-0.028-0.029
			l-0.028-0.029l-0.029-0.029l-0.028-0.028l-0.028-0.028l-0.029-0.029l-0.028-0.029l-0.028-0.059l-0.031-0.028l-0.03-0.029
			l-0.028-0.028l-0.028-0.028l-0.029-0.03l-0.028-0.029l-0.027-0.029l-0.029-0.028l-0.058-0.028l-0.029-0.029l-0.028-0.029
			l-0.028-0.029l-0.028-0.029l-0.029-0.028l-0.028-0.029l-0.059-0.028l-0.028-0.029l-0.028-0.029l-0.029-0.029l-0.058-0.029
			l-0.029-0.028l-0.029-0.028l-0.059-0.029l-0.029-0.029l-0.058-0.029l-0.028-0.029l-0.058-0.028l-0.029-0.029l-0.058-0.028
			l-0.029-0.029l-0.062-0.029l-0.059-0.029l-0.058-0.029L33.4,20.678l-0.059-0.028l-0.059-0.029l-0.058-0.03l-0.059-0.028
			l-0.059-0.029l-0.059-0.029l-0.084-0.028l-0.059-0.028l-0.058-0.029l-0.087-0.028l-0.086-0.028l-0.06-0.029l-0.085-0.03
			l-0.086-0.029l-0.087-0.028l-0.113-0.028l-0.116-0.029l-0.115-0.028l-0.116-0.029l-0.146-0.029L31.58,20.07l-0.231-0.027
			l-0.289-0.03h-3.212l-0.029,0.03l-0.028,0.115l-0.028,0.115l-0.028,0.116l-0.028,0.087l-0.028,0.115l-0.029,0.117l-0.029,0.115
			l-0.027,0.116l-0.028,0.116l-0.029,0.087l-0.027,0.116l-0.028,0.115l-0.029,0.117l-0.028,0.115l-0.028,0.088l-0.029,0.115
			l-0.028,0.116l-0.028,0.116l-0.029,0.115l-0.029,0.116l-0.027,0.087l-0.029,0.116l-0.029,0.116l-0.028,0.117l-0.028,0.115
			l-0.029,0.086l-0.028,0.117l-0.028,0.115l-0.029,0.116l-0.027,0.116l-0.028,0.115l-0.029,0.088l-0.029,0.115l-0.027,0.116
			l-0.029,0.116l-0.029,0.115l-0.027,0.088l-0.029,0.115l-0.029,0.117l-0.027,0.115l-0.028,0.116l-0.029,0.116v0.086h0.087v0.059
			l0.029,0.029l0.029,0.027l0.027,0.029l0.06,0.029L26.878,25l0.029,0.027l0.059,0.029l0.059,0.029l0.058,0.029l0.06,0.029
			l0.027,0.027l0.06,0.031l0.058,0.028l0.06,0.028l0.058,0.029l0.058,0.028l0.029,0.029l0.058,0.028l0.061,0.029l0.028,0.029
			l0.058,0.029l0.058,0.029l0.028,0.028l0.058,0.028l0.029,0.029l0.058,0.029l0.029,0.029l0.029,0.029l0.057,0.028l0.03,0.029
			l0.029,0.028l0.058,0.029l0.029,0.029l0.027,0.029l0.029,0.029l0.058,0.028l0.028,0.028l0.029,0.031l0.029,0.028l0.027,0.029
			l0.029,0.028l0.029,0.028l0.027,0.029l0.029,0.028l0.029,0.029l0.027,0.029l0.029,0.029l0.029,0.029l0.028,0.028l0.028,0.028
			l0.028,0.029l0.028,0.028l0.028,0.058l0.029,0.029l0.029,0.029l0.026,0.059l0.029,0.028l0.029,0.058l0.027,0.059l0.028,0.058
			l0.03,0.029l0.026,0.058l0.029,0.059l0.029,0.086l0.028,0.059l0.028,0.059l0.029,0.086l0.028,0.088l0.028,0.086l0.028,0.115
			l0.028,0.088l0.028,0.115l0.029,0.116l0.029,0.116l0.027,0.115l0.029,0.146l0.029,0.145l0.028,0.174l0.027,0.232l0.029,0.348
			v0.145l-0.029,0.436l-0.027,0.203l-0.028,0.203l-0.029,0.145l-0.029,0.115l-0.027,0.117l-0.029,0.115l-0.029,0.116l-0.028,0.087
			l-0.028,0.086l-0.028,0.059l-0.028,0.086l-0.028,0.088l-0.029,0.058l-0.028,0.058l-0.028,0.088l-0.029,0.058l-0.029,0.058
			l-0.026,0.059l-0.03,0.058l-0.028,0.058l-0.027,0.059l-0.029,0.059l-0.029,0.057l-0.026,0.059l-0.029,0.059l-0.029,0.027
			l-0.028,0.059l-0.028,0.059l-0.028,0.059l-0.028,0.059l-0.028,0.029l-0.029,0.058l-0.029,0.06l-0.027,0.027l-0.029,0.057
			l-0.029,0.029l-0.027,0.061l-0.029,0.027l-0.029,0.059l-0.027,0.027l-0.029,0.061l-0.029,0.027l-0.034,0.027l-0.027,0.059
			l-0.029,0.029l-0.029,0.027l-0.027,0.061l-0.029,0.027l-0.029,0.027l-0.028,0.029l-0.028,0.059l-0.03,0.029l-0.028,0.028
			l-0.027,0.058l-0.029,0.028l-0.029,0.028l-0.027,0.029l-0.029,0.027l-0.029,0.059l-0.027,0.029l-0.029,0.029l-0.028,0.027
			l-0.028,0.029l-0.028,0.028l-0.029,0.026l-0.028,0.06l-0.027,0.028l-0.029,0.029l-0.028,0.029l-0.027,0.027l-0.029,0.027
			l-0.029,0.029l-0.027,0.028l-0.029,0.028l-0.029,0.028l-0.028,0.028l-0.028,0.027l-0.029,0.029l-0.028,0.028l-0.028,0.028
			l-0.029,0.029l-0.028,0.027l-0.028,0.027l-0.029,0.029l-0.028,0.028l-0.028,0.028l-0.029,0.029l-0.029,0.028l-0.027,0.028
			l-0.028,0.027l-0.029,0.029l-0.028,0.027l-0.028,0.029l-0.059,0.029l-0.028,0.027l-0.029,0.027l-0.059,0.029l-0.027,0.028
			l-0.059,0.028l-0.028,0.029l-0.059,0.027l-0.028,0.029l-0.059,0.027l-0.028,0.029l-0.059,0.025l-0.029,0.031l-0.059,0.027
			l-0.028,0.029l-0.059,0.027l-0.028,0.029l-0.059,0.027l-0.058,0.027l-0.029,0.029l-0.059,0.029l-0.028,0.029l-0.059,0.027
			l-0.059,0.027l-0.028,0.027l-0.059,0.029l-0.059,0.029l-0.028,0.029l-0.059,0.027L25.5,35.103l-0.058,0.027l-0.059,0.027
			l-0.059,0.029l-0.059,0.029l-0.059,0.027l-0.058,0.029L25.092,35.3l-0.059,0.027l-0.086,0.029l-0.059,0.029l-0.059,0.029
			l-0.087,0.027l-0.058,0.029l-0.088,0.025l-0.059,0.029l-0.086,0.029l-0.058,0.029l-0.087,0.027l-0.087,0.029l-0.059,0.025
			l-0.116,0.029l-0.086,0.029l-0.115,0.029l-0.114,0.028l-0.146,0.028l-0.173,0.027l-0.203,0.029l-0.229,0.027l-0.318,0.029
			l-0.611,0.029l0.033-0.087l0.029-0.089l0.029-0.088l0.027-0.086l0.029-0.117l0.029-0.086l0.027-0.088l0.029-0.086l0.029-0.088
			l0.027-0.086l0.029-0.088l0.028-0.115l0.028-0.115l0.028-0.115l0.029-0.087l0.029-0.114l0.026-0.117l0.029-0.115l0.029-0.116
			l0.027-0.087l0.028-0.115l0.029-0.117l0.027-0.113l0.029-0.115l0.029-0.088l0.027-0.116l0.029-0.114l0.029-0.115l0.029-0.088
			l0.027-0.115l0.029-0.115l0.029-0.117l0.027-0.115l0.028-0.088l0.03-0.115l0.027-0.115l0.029-0.115l0.029-0.115l0.026-0.087
			l0.029-0.116l0.029-0.115l0.028-0.117l0.028-0.115l0.029-0.087l0.029-0.116l0.027-0.115l0.029-0.117l0.028-0.086l0.027-0.117
			l0.029-0.115l0.029-0.116l0.028-0.116l0.028-0.086L23.6,30.25l0.028-0.115l0.028-0.116l0.029-0.116l0.028-0.087l0.027-0.116
			l0.03-0.115l0.028-0.117l0.027-0.115l0.029-0.087l0.029-0.116l0.028-0.115l0.028-0.117l0.029-0.086L24,28.712l0.027-0.115
			l0.029-0.117l0.028-0.115l0.028-0.087l0.029-0.116l0.028-0.115l0.028-0.116l0.029-0.116l0.028-0.087l0.028-0.116l0.029-0.115
			l0.028-0.117l0.028-0.086l0.028-0.117l0.029-0.115l0.028-0.116l0.028-0.116l0.028-0.086l0.028-0.117l0.028-0.115l0.029-0.116
			l0.028-0.116l0.029-0.086l0.027-0.115l0.028-0.117l0.029-0.115l0.028-0.116l0.028-0.087l0.028-0.116l0.028-0.116l0.029-0.115
			l0.028-0.088l0.028-0.115l0.029-0.117l0.028-0.116l0.029-0.116l0.028-0.086l0.028-0.117l0.029-0.115l0.028-0.116l0.028-0.116
			l0.029-0.087l0.028-0.116l0.028-0.115l0.029-0.117l0.028-0.086l0.029-0.116l0.028-0.116l0.029-0.115l0.028-0.117l0.028-0.086
			L25.487,23l0.028-0.115l0.027-0.116l0.029-0.116l0.028-0.086l0.028-0.117l0.029-0.115l0.027-0.116l0.028-0.116l0.029-0.087
			l0.028-0.116l0.027-0.115l0.029-0.117l0.029-0.086l0.028-0.117l0.028-0.116l0.029-0.116l0.028-0.115L26,21.027l0.029-0.115
			l0.028-0.117l0.027-0.115l0.029-0.115l0.029-0.088l0.027-0.115l0.029-0.117l0.029-0.115l0.027-0.088l0.029-0.115l0.029-0.116
			l0.028-0.116l0.028-0.115l0.029-0.088l0.028-0.115l0.028-0.116l0.029-0.115l0.029-0.116l0.027-0.088l0.029-0.115l0.029-0.117
			l0.026-0.115l0.029-0.116l0.029-0.087l0.027-0.115l0.029-0.117l0.029-0.117l0.029-0.086l0.027-0.115l0.029-0.116l0.029-0.116
			l0.027-0.115l0.028-0.088l0.029-0.115l0.027-0.116l0.029-0.116l0.029-0.115l0.027-0.088l0.029-0.115l0.029-0.115l0.028-0.116
			l0.028-0.087l0.029-0.116l0.029-0.116l0.027-0.115l0.029-0.117l0.029-0.086l0.027-0.116l0.029-0.116l0.029-0.115l0.027-0.117
			l0.028-0.086l0.029-0.117l0.028-0.115l0.027-0.116l0.029-0.116l0.028-0.087l0.028-0.116l0.029-0.117l0.027-0.114l0.028-0.087
			v-0.145h-6.742l-0.028,0.028l-0.029,0.116l-0.029,0.115l-0.027,0.117l-0.029,0.086l-0.029,0.116l-0.026,0.116l-0.029,0.115
			l-0.029,0.088l-0.027,0.115l-0.028,0.117l-0.029,0.086l-0.028,0.117l-0.028,0.115l-0.029,0.116l0.003,0.114l-0.028,0.116
			l-0.028,0.116l-0.029,0.087L20.462,16.3l-0.029,0.115l-0.029,0.115l-0.022,0.118l-0.028,0.116l-0.029,0.115l-0.028,0.115
			l-0.028,0.088l-0.029,0.115l-0.031,0.116l-0.028,0.087l-0.029,0.116l-0.029,0.116l-0.028,0.115l-0.028,0.088l-0.029,0.115
			l-0.028,0.117l-0.028,0.086l-0.029,0.116l-0.031,0.116l-0.028,0.115l-0.029,0.088l-0.028,0.115l-0.028,0.117l-0.029,0.115
			l-0.029,0.086l-0.028,0.117l-0.028,0.116l-0.03,0.087l-0.028,0.115L19.6,19.578l-0.029,0.115l-0.028,0.088l-0.028,0.115
			l-0.029,0.116l-0.028,0.116l-0.032,0.087l-0.027,0.114l-0.029,0.117l-0.028,0.086l-0.028,0.116l-0.029,0.116l-0.028,0.115
			l-0.028,0.088l-0.029,0.115l-0.028,0.117l-0.028,0.086l-0.028,0.117l-0.029,0.115l-0.027,0.117l-0.029,0.087l-0.029,0.116
			l-0.028,0.115l-0.028,0.117l-0.029,0.086l-0.028,0.116l-0.028,0.116l-0.029,0.087l-0.028,0.116l-0.027,0.117l-0.029,0.115
			l-0.029,0.086l-0.027,0.117l-0.029,0.115l-0.029,0.087l-0.027,0.116l-0.029,0.115l-0.029,0.117l-0.027,0.086l-0.029,0.117
			l-0.028,0.115l-0.028,0.115L18.396,24.1l-0.029,0.116l-0.029,0.115l-0.027,0.088l-0.029,0.115l-0.029,0.116l-0.026,0.116
			l-0.03,0.087l-0.028,0.116l-0.027,0.115l-0.029,0.088l-0.029,0.117l-0.027,0.115l-0.028,0.116l-0.029,0.087l-0.029,0.116
			l-0.027,0.116l-0.028,0.117l-0.029,0.086l-0.027,0.115l-0.029,0.116l-0.029,0.087l-0.027,0.116l-0.029,0.116l-0.029,0.115
			l-0.027,0.088l-0.029,0.115l-0.028,0.116l-0.028,0.087l-0.028,0.116l-0.029,0.116l-0.028,0.115l-0.028,0.088l-0.029,0.115
			l-0.029,0.117L17.396,27.9l-0.028,0.087l-0.03,0.116l-0.026,0.115l-0.029,0.088l-0.029,0.115l-0.028,0.117l-0.028,0.116
			l-0.029,0.087l-0.028,0.116l-0.028,0.116l-0.029,0.115l-0.028,0.088l-0.028,0.115l-0.029,0.117l-0.029,0.086l-0.027,0.116
			l-0.029,0.116l-0.029,0.115l-0.028,0.088l-0.027,0.115l-0.03,0.117l-0.028,0.086l-0.028,0.116l-0.029,0.116l-0.028,0.115
			l-0.027,0.088L16.622,30.8l-0.028,0.117l-0.029,0.115l-0.028,0.088l-0.029,0.115l-0.028,0.116l-0.028,0.087l-0.029,0.115
			l-0.028,0.117l-0.028,0.115l-0.029,0.086l-0.028,0.116l-0.028,0.116l-0.029,0.087l-0.027,0.116l-0.029,0.115l-0.028,0.115
			l-0.028,0.086l-0.028,0.117l-0.028,0.114l-0.028,0.116l-0.029,0.086l-0.028,0.117l-0.029,0.115l-0.028,0.088l-0.027,0.114
			l-0.029,0.115l-0.028,0.116l-0.029,0.086l-0.028,0.117l-0.028,0.115l-0.028,0.088l-0.028,0.115L15.68,34.36l-0.029,0.116
			l-0.028,0.087l-0.028,0.114l-0.028,0.117l-0.029,0.114l-0.027,0.086l-0.029,0.117l-0.029,0.114l-0.028,0.089l-0.028,0.114
			l-0.029,0.115l-0.028,0.117l-0.028,0.086l-0.029,0.117l-0.028,0.113l-0.028,0.117l-0.029,0.086l-0.028,0.115l-0.028,0.116
			L15.106,36.5l-0.029,0.116l-0.027,0.115l-0.028,0.116l-0.029,0.086l-0.076,0.122l-0.028,0.116l-0.029,0.087l-0.028,0.116
			l-0.028,0.115l-0.029,0.114l-0.028,0.089l-0.029,0.114l-0.028,0.116l-0.029,0.115l-0.028,0.086l-0.028,0.117l-0.029,0.114
			l-0.028,0.089l-0.028,0.114l-0.029,0.117l-0.028,0.114l-0.027,0.086L14.4,38.994l-0.028,0.114l-0.028,0.089l-0.029,0.114
			l-0.029,0.117l-0.028,0.114l-0.028,0.086l-0.029,0.117l-0.028,0.115l-0.028,0.116l-0.028,0.086l-0.028,0.117l-0.028,0.114
			l-0.029,0.086l-0.029,0.117l-0.027,0.115l-0.029,0.114l-0.029,0.088l-0.027,0.115v0.06l0.087,0.028l0.087,0.028l0.115,0.029
			l0.088,0.026l0.115,0.028l0.086,0.029l0.088,0.028l0.087,0.028l0.115,0.029l0.202,0.026h4.688l0.637-0.026l0.463-0.029
			l0.376-0.028l0.318-0.028l0.29-0.029l0.26-0.028l0.232-0.026l0.229-0.029l0.202-0.028l0.203-0.028l0.203-0.029l0.173-0.028
			l0.174-0.026l0.173-0.029l0.146-0.028l0.173-0.029l0.145-0.028l0.146-0.028l0.145-0.029l0.146-0.026l0.116-0.029l0.145-0.028
			l0.115-0.028l0.145-0.029l0.116-0.028l0.116-0.026l0.116-0.029l0.115-0.028l0.115-0.028l0.116-0.029l0.087-0.028l0.115-0.028
			l0.116-0.027l0.087-0.028l0.086-0.028l0.115-0.029l0.088-0.028l0.087-0.026l0.087-0.029l0.087-0.029l0.086-0.028l0.058-0.028
			l0.088-0.028l0.087-0.029l0.059-0.026l0.087-0.029l0.058-0.028l0.088-0.028l0.059-0.029l0.058-0.028l0.06-0.028l0.087-0.027
			l0.058-0.029l0.06-0.027l0.058-0.029l0.058-0.028l0.06-0.028l0.058-0.027l0.06-0.029l0.058-0.027l0.057-0.029l0.061-0.028
			l0.058-0.029l0.06-0.026l0.058-0.029l0.058-0.028l0.029-0.028l0.058-0.028l0.06-0.029l0.058-0.028l0.06-0.027l0.027-0.029
			l0.06-0.027l0.058-0.029l0.029-0.028l0.058-0.028l0.059-0.029l0.028-0.027l0.037-0.045l0.059-0.029l0.058-0.027l0.029-0.029
			L29.16,38.9l0.06-0.027l0.028-0.028l0.058-0.028l0.028-0.029l0.059-0.027l0.058-0.029l0.029-0.027l0.057-0.028l0.06-0.028
			l0.028-0.029l0.059-0.027l0.058-0.029l0.029-0.029l0.058-0.027l0.028-0.027l0.059-0.029l0.06-0.027l0.028-0.029l0.059-0.029
			l0.058-0.027l0.029-0.028l0.058-0.028l0.029-0.029l0.059-0.027l0.059-0.029l0.028-0.029l0.059-0.026l0.057-0.028l0.06-0.029
			l0.027-0.027l0.06-0.029l0.058-0.029l0.059-0.026l0.059-0.029l0.058-0.028l0.06-0.029l0.058-0.027l0.059-0.029l0.059-0.029
			l0.058-0.026l0.06-0.028l0.057-0.029l0.087-0.027l0.059-0.029l0.088-0.027l-0.029,0.115l-0.029,0.115l-0.027,0.088L31.4,38.058
			l-0.029,0.113l-0.027,0.117l-0.028,0.086l-0.03,0.117l-0.028,0.114l-0.027,0.117L31.2,38.837l-0.029,0.087l-0.027,0.116
			l-0.029,0.115l-0.029,0.117l-0.027,0.086l-0.029,0.117l-0.029,0.115l-0.028,0.113l-0.028,0.117l-0.029,0.086l-0.029,0.117
			l-0.027,0.114l-0.029,0.114l-0.029,0.089l-0.027,0.114l-0.029,0.117l-0.029,0.115l-0.026,0.086l-0.029,0.117l-0.029,0.115
			l-0.028,0.115l-0.028,0.115l-0.029,0.086l-0.028,0.117l-0.028,0.114l-0.028,0.116l-0.029,0.086l-0.027,0.115L30.37,41.99
			l-0.029,0.115l-0.027,0.117l-0.029,0.086l-0.029,0.115l-0.028,0.115l-0.028,0.115l-0.029,0.088l-0.028,0.115l-0.028,0.116
			l-0.029,0.114l-0.028,0.086l-0.028,0.117l-0.029,0.115l-0.029,0.115l-0.026,0.117l-0.029,0.086l-0.03,0.117l-0.027,0.113
			l-0.028,0.117l-0.029,0.086l-0.028,0.117l-0.028,0.114l-0.029,0.114l-0.028,0.117l-0.028,0.086l-0.029,0.115l-0.028,0.117
			l-0.029,0.115l-0.027,0.088l-0.028,0.115l-0.029,0.115l-0.028,0.115l-0.029,0.114l-0.028,0.089l-0.028,0.114l-0.043,0.1
			l-0.062,0.11l-0.028,0.086l-0.028,0.117l-0.028,0.115l-0.029,0.117l-0.029,0.086l-0.028,0.115l-0.028,0.116l-0.029,0.114
			L29.007,47l-0.029,0.086l-0.028,0.117l-0.028,0.113l-0.028,0.115l-0.029,0.088l-0.027,0.115l-0.028,0.115l-0.029,0.117
			l-0.029,0.114l-0.027,0.089l-0.028,0.114L28.664,48.3l-0.027,0.115l-0.029,0.088l-0.029,0.115l-0.028,0.113l-0.028,0.117
			l-0.029,0.086l-0.028,0.115l-0.028,0.117l-0.029,0.115l-0.029,0.116l-0.027,0.086l-0.029,0.117l-0.028,0.114l-0.027,0.115
			l-0.029,0.088l-0.029,0.115l-0.027,0.115l-0.029,0.115L28.12,50.38l-0.027,0.088l-0.029,0.115l-0.03,0.117l-0.028,0.114
			l-0.027,0.088l-0.029,0.115l-0.029,0.114l-0.027,0.117l-0.029,0.113l-0.029,0.09l-0.027,0.113l-0.029,0.115l-0.028,0.117
			l-0.03,0.094l-0.028,0.117l-0.029,0.115l-0.029,0.115l-0.026,0.088l-0.029,0.114l-0.029,0.117l-0.026,0.114l-0.029,0.115
			l-0.029,0.088l-0.027,0.115l-0.029,0.113l-0.029,0.117l-0.028,0.088l-0.028,0.115l-0.029,0.115l-0.028,0.117l-0.028,0.114
			l-0.029,0.088l-0.029,0.115l-0.027,0.114l-0.029,0.117l-0.029,0.086L27.06,54.41l-0.028,0.114l-0.029,0.114l-0.027,0.088
			l-0.028,0.115l-0.029,0.117l-0.028,0.115l-0.028,0.114l-0.029,0.088l-0.028,0.115l-0.028,0.116l-0.029,0.115l-0.028,0.086
			l-0.029,0.117L26.66,55.94l-0.029,0.117l-0.028,0.114l-0.028,0.086l-0.029,0.117l-0.028,0.115l-0.028,0.116l-0.029,0.087
			l-0.028,0.116l-0.028,0.115l-0.029,0.114l-0.028,0.117l-0.029,0.086l-0.028,0.117l-0.028,0.114l-0.029,0.114l-0.028,0.088
			l-0.029,0.115l-0.028,0.117l-0.027,0.114l-0.029,0.087l-0.028,0.116L26.03,58.34l-0.029,0.116l-0.028,0.115l-0.029,0.086
			l-0.028,0.117l-0.028,0.114l-0.029,0.116l-0.028,0.087l-0.027,0.116l-0.029,0.115l-0.028,0.114l-0.027,0.117l-0.029,0.086
			l-0.028,0.117l-0.029,0.114l-0.028,0.115l-0.028,0.088l-0.028,0.115l-0.028,0.116l-0.029,0.115l-0.028,0.114l-0.028,0.088
			l-0.029,0.115l-0.028,0.117l-0.028,0.114l-0.029,0.086l-0.028,0.117l-0.028,0.114l-0.029,0.115v0.088l0.087,0.028l0.23,0.029
			l0.146,0.026l0.116,0.031l0.114,0.026l0.146,0.028l0.146,0.029l0.175,0.028l0.145,0.028l0.146,0.029l0.173,0.026l0.173,0.028
			l0.174,0.029l0.175,0.028l0.174,0.029l0.23,0.028l0.202,0.026l0.203,0.029l0.261,0.028l0.231,0.029l0.26,0.028l0.348,0.028
			l0.318,0.027l0.434,0.028l0.551,0.028l1.216,0.029h0.145l1.216-0.029l0.551-0.028l0.435-0.028l0.318-0.027l0.347-0.028
			l0.261-0.028l0.261-0.029l0.23-0.028l0.435-0.029l0.377-0.026l0.318-0.028l0.26-0.029l0.262-0.028l0.202-0.029l0.231-0.028
			l0.172-0.026l0.174-0.029l0.175-0.028l0.175-0.028l0.174-0.029l0.145-0.028l0.146-0.026l0.145-0.031l0.146-0.026l0.145-0.029
			l0.117-0.028l0.115-0.028l0.145-0.027l0.115-0.03l0.115-0.026l0.117-0.029l0.113-0.028l0.115-0.029l0.117-0.028l0.086-0.028
			l0.115-0.027l0.117-0.028l0.086-0.028l0.113-0.029l0.089-0.028l0.114-0.028l0.086-0.027l0.089-0.028l0.086-0.028l0.089-0.029
			l0.113-0.028l0.087-0.027l0.089-0.028l0.086-0.029l0.088-0.028l0.081-0.024l0.088-0.028l0.086-0.029l0.059-0.026l0.086-0.027
			l0.088-0.029l0.087-0.029l0.06-0.029l0.086-0.028l0.088-0.026l0.086-0.029l0.061-0.027l0.086-0.029l0.059-0.029l0.086-0.028
			l0.061-0.028l0.086-0.027l0.059-0.027l0.086-0.029l0.088-0.029l0.061-0.028l0.057-0.029l0.088-0.026l0.057-0.029l0.061-0.027
			l0.086-0.029l0.059-0.029l0.061-0.028l0.086-0.026l0.059-0.029l0.059-0.027l0.088-0.029l0.057-0.029l0.061-0.028l0.059-0.029
			l0.057-0.026l0.088-0.028l0.059-0.028l0.059-0.029l0.061-0.029l0.057-0.028l0.06-0.028l0.06-0.027l0.057-0.027l0.061-0.029
			l0.086-0.029l0.059-0.028l0.06-0.028l0.058-0.027l0.059-0.028l0.059-0.028l0.059-0.029l0.06-0.028l0.058-0.029l0.059-0.026
			l0.029-0.028l0.058-0.029l0.06-0.028l0.059-0.029l0.058-0.028l0.06-0.028l0.06-0.027l0.058-0.028L46.133,59l0.058-0.029
			l0.028-0.028l0.061-0.028l0.059-0.029l0.058-0.026l0.06-0.028l0.06-0.029l0.026-0.028l0.06-0.029l0.06-0.028l0.057-0.026
			l0.029-0.029l0.06-0.028l0.058-0.029l0.059-0.028l0.029-0.028l0.057-0.027l0.06-0.028l0.06-0.028l0.026-0.029l0.06-0.028
			l0.06-0.028l0.028-0.027l0.058-0.028l0.06-0.028l0.028-0.029l0.058-0.028l0.06-0.029l0.028-0.028l0.058-0.027l0.06-0.028
			l0.028-0.028l0.058-0.029l0.028-0.028l0.06-0.026l0.029-0.029l0.057-0.028l0.06-0.028l0.029-0.029l0.057-0.028l0.029-0.028
			l0.06-0.029l0.057-0.027l0.029-0.027l0.06-0.029l0.028-0.028l0.058-0.029l0.028-0.026l0.06-0.029l0.028-0.028l0.058-0.028
			l0.028-0.029l0.06-0.028l0.029-0.028l0.057-0.027l0.029-0.029l0.06-0.027l0.026-0.029l0.06-0.028l0.028-0.028l0.028-0.027
			l0.058-0.029l0.029-0.027l0.059-0.029l0.029-0.028l0.058-0.029l0.028-0.028l0.06-0.027l0.026-0.029l0.028-0.027l0.06-0.029
			l0.029-0.028l0.028-0.028l0.058-0.027l0.028-0.029l0.06-0.027l0.028-0.029l0.027-0.028l0.06-0.028l0.028-0.029l0.058-0.027
			l0.028-0.029l0.028-0.027l0.06-0.029l0.027-0.028l0.028-0.028l0.06-0.027l0.028-0.029l0.028-0.027l0.058-0.029l0.029-0.028
			l0.028-0.028l0.06-0.029l0.026-0.027l0.029-0.029l0.028-0.027l0.06-0.029l0.026-0.027l0.028-0.029l0.06-0.027l0.029-0.029
			l0.026-0.029l0.028-0.027l0.06-0.028l0.029-0.028l0.028-0.027l0.026-0.029l0.06-0.029l0.028-0.027l0.027-0.029l0.028-0.027
			l0.06-0.029l0.028-0.027l0.029-0.029l0.028-0.029l0.058-0.027l0.028-0.029l0.029-0.027l0.028-0.027l0.026-0.029l0.06-0.029
			l0.028-0.027l0.029-0.029l0.028-0.027l0.058-0.029l0.029-0.027l0.028-0.029l0.028-0.029l0.027-0.027l0.028-0.029l0.06-0.027
			l0.028-0.027l0.028-0.029l0.027-0.029l0.028-0.027l0.028-0.029l0.061-0.027l0.025-0.027l0.029-0.029l0.029-0.029l0.028-0.028
			l0.028-0.028l0.027-0.029l0.059-0.027l0.029-0.027l0.028-0.029l0.028-0.029l0.027-0.027l0.028-0.029l0.028-0.027l0.029-0.027
			l0.026-0.029l0.06-0.029l0.029-0.028l0.027-0.028l0.029-0.029l0.029-0.025l0.026-0.029l0.028-0.029l0.029-0.028l0.028-0.028
			l0.026-0.029l0.029-0.025l0.059-0.029l0.029-0.029l0.029-0.029l0.027-0.028l0.027-0.028l0.029-0.029l0.027-0.025l0.029-0.029
			l0.027-0.029l0.029-0.028l0.027-0.028l0.029-0.029l0.027-0.025l0.029-0.029l0.029-0.029l0.025-0.028l0.029-0.029l0.029-0.028
			l0.029-0.029l0.027-0.025l0.027-0.029l0.029-0.029l0.059-0.028l0.029-0.028l0.025-0.029l0.029-0.025l0.029-0.029l0.027-0.029
			l0.029-0.028l0.027-0.028l0.027-0.029l0.029-0.026l0.029-0.028l0.028-0.029l0.026-0.059l0.031-0.029l0.027-0.029l0.027-0.028
			l0.029-0.026l0.029-0.029l0.025-0.028l0.029-0.028l0.029-0.027l0.027-0.03l0.029-0.026l0.029-0.029l0.025-0.028l0.029-0.028
			l0.029-0.029l0.028-0.028l0.028-0.027l0.027-0.028l0.028-0.028l0.028-0.029l0.029-0.028l0.028-0.029l0.028-0.026l0.027-0.028
			l0.028-0.06l0.028-0.028l0.029-0.029l0.029-0.028l0.025-0.026l0.029-0.029l0.029-0.028l0.028-0.029l0.028-0.028l0.029-0.029
			l0.026-0.057l0.028-0.029l0.029-0.028l0.028-0.028l0.026-0.029l0.029-0.026l0.028-0.028l0.028-0.029l0.029-0.028l0.028-0.06
			l0.026-0.028l0.029-0.027l0.028-0.028l0.028-0.028l0.029-0.029l0.028-0.028l0.027-0.058l0.028-0.028l0.028-0.029l0.029-0.028
			l0.028-0.028l0.026-0.029l0.029-0.057l0.028-0.029l0.029-0.028l0.028-0.029l0.028-0.028l0.027-0.058l0.028-0.028l0.028-0.029
			l0.029-0.028l0.028-0.028l0.027-0.029l0.028-0.057l0.028-0.029l0.029-0.028l0.028-0.029l0.028-0.057l0.027-0.029l0.028-0.028
			l0.028-0.029l0.029-0.059l0.028-0.029l0.026-0.026l0.029-0.028l0.028-0.029l0.029-0.059l0.028-0.029l0.029-0.026l0.026-0.029
			l0.028-0.059l0.029-0.029l0.028-0.028l0.028-0.058l0.027-0.028l0.028-0.029l0.028-0.059l0.029-0.029l0.028-0.027l0.026-0.028
			l0.029-0.06l0.028-0.028l0.028-0.028l0.029-0.058l0.029-0.028l0.025-0.029l0.029-0.059l0.029-0.029l0.027-0.026l0.029-0.06
			l0.029-0.028l0.025-0.029l0.029-0.058l0.029-0.028l0.028-0.06l0.028-0.028l0.027-0.028l0.028-0.058l0.028-0.029l0.029-0.028
			l0.029-0.06l0.025-0.028l0.029-0.058l0.029-0.028l0.027-0.029l0.029-0.06l0.029-0.028l0.025-0.058l0.029-0.028l0.029-0.06
			l0.027-0.028l0.029-0.027l0.027-0.059l0.027-0.029l0.029-0.06l0.029-0.026l0.028-0.06l0.026-0.028l0.029-0.06l0.029-0.026
			l0.027-0.06l0.029-0.028l0.029-0.06l0.025-0.029l0.029-0.058l0.029-0.028l0.027-0.06l0.029-0.028l0.029-0.058l0.025-0.06
			l0.029-0.028l0.029-0.058l0.027-0.028l0.029-0.06l0.027-0.028l0.028-0.061l0.028-0.028l0.029-0.058l0.028-0.059l0.026-0.029
			l0.029-0.057l0.028-0.06l0.028-0.029l0.029-0.06l0.029-0.057l0.025-0.029l0.029-0.059l0.029-0.029l0.027-0.057l0.029-0.061
			l0.027-0.028l0.028-0.058l0.028-0.059l0.029-0.06l0.028-0.029l0.028-0.06l0.027-0.057l0.028-0.06l0.028-0.026l0.029-0.06
			l0.028-0.06l0.026-0.029l0.029-0.059l0.028-0.058l0.028-0.06l0.029-0.06l0.028-0.058l0.026-0.028l0.029-0.06l0.028-0.059
			l0.029-0.058l0.028-0.06l0.026-0.06l0.085-0.116l0.028-0.059l0.029-0.059l0.028-0.061l0.028-0.057l0.027-0.061l0.028-0.059
			l0.028-0.057l0.029-0.061l0.029-0.059l0.025-0.059l0.029-0.059l0.029-0.059l0.027-0.058l0.029-0.06l0.029-0.061l0.025-0.057
			l0.029-0.059l0.029-0.061l0.027-0.059l0.029-0.059l0.027-0.059l0.027-0.086l0.029-0.06l0.029-0.06l0.028-0.059l0.026-0.059
			l0.029-0.059l0.029-0.086l0.027-0.06l0.029-0.06l0.029-0.057l0.025-0.09l0.029-0.059l0.029-0.057l0.027-0.089l0.029-0.06
			l0.027-0.057l0.027-0.088l0.029-0.061l0.029-0.057l0.027-0.088l0.029-0.058l0.027-0.088l0.028-0.06l0.028-0.086l0.029-0.061
			l0.028-0.086l0.028-0.088l0.027-0.059l0.029-0.086l0.027-0.089l0.029-0.057l0.029-0.089l0.025-0.086l0.029-0.059l0.029-0.089
			l0.027-0.087l0.029-0.088L60.734,42l0.028-0.088l0.028-0.086l0.029-0.088l0.028-0.086l0.028-0.088l0.027-0.086l0.028-0.088
			l0.028-0.115l0.029-0.088l0.028-0.086l0.026-0.089l0.029-0.114l0.028-0.088l0.028-0.115l0.029-0.088l0.026-0.115l0.028-0.115
			l0.029-0.116l0.029-0.114l0.028-0.088l0.028-0.115l0.027-0.114l0.028-0.146l0.028-0.115l0.029-0.146l0.028-0.116L61.5,39.16
			l0.027-0.145l0.028-0.146l0.028-0.145l0.029-0.146l0.028-0.174l0.026-0.115l0.029-0.088l0.028-0.115l0.029-0.113l0.028-0.117
			l0.028-0.174l0.027-0.146l0.028-0.203l0.028-0.174l0.029-0.203l0.028-0.203l0.026-0.202l0.029-0.229l0.028-0.231l0.029-0.263
			l0.028-0.288l0.026-0.318l0.029-0.351l0.028-0.403l0.029-0.58v-2.67l-0.029-0.58l-0.028-0.406l-0.029-0.349l-0.026-0.318
			l-0.028-0.291l-0.029-0.261l-0.028-0.229l-0.029-0.232l-0.026-0.203l-0.028-0.203l-0.029-0.203l-0.028-0.174l-0.028-0.203
			l-0.027-0.145l-0.028-0.174l-0.028-0.174l-0.029-0.146l-0.028-0.146l-0.029-0.145l-0.026-0.145l-0.028-0.146l-0.029-0.145
			l-0.028-0.146l-0.028-0.115L61.5,25.822l-0.028-0.146l-0.028-0.116l-0.029-0.116l-0.028-0.115l-0.028-0.117l-0.027-0.086
			l-0.028-0.029l-0.028-0.116l-0.029-0.087l-0.029-0.115l-0.028-0.088l-0.026-0.115l-0.029-0.088l-0.028-0.115l-0.028-0.088
			l-0.029-0.086l-0.026-0.088l-0.028-0.117l-0.029-0.086l-0.028-0.086l-0.028-0.088l-0.027-0.086l-0.028-0.087l-0.028-0.087
			l-0.029-0.087l-0.028-0.087l-0.028-0.088l-0.027-0.057l-0.029-0.088l-0.027-0.087l-0.029-0.087l-0.029-0.059l-0.025-0.086
			l-0.029-0.088l-0.029-0.058l-0.027-0.086l-0.029-0.087l-0.027-0.059l-0.028-0.088l-0.028-0.058l-0.029-0.087L60.31,22.08
			l-0.028-0.086l-0.027-0.059l-0.029-0.059l-0.027-0.086l-0.029-0.059l-0.029-0.087l-0.027-0.058l-0.027-0.059l-0.029-0.059
			l-0.027-0.087l-0.029-0.058l-0.029-0.059l-0.025-0.087l-0.029-0.058l-0.029-0.059l-0.021-0.039l-0.029-0.058l-0.029-0.087
			l-0.025-0.059l-0.029-0.058l-0.029-0.058l-0.027-0.059l-0.029-0.059l-0.027-0.059l-0.027-0.086l-0.029-0.059l-0.029-0.059
			l-0.028-0.059l-0.026-0.058l-0.029-0.06l-0.028-0.058l-0.028-0.058l-0.029-0.06l-0.029-0.058l-0.025-0.059l-0.029-0.058
			l-0.029-0.058l-0.027-0.059l-0.029-0.058l-0.027-0.058l-0.027-0.029l-0.029-0.059l-0.029-0.058l-0.027-0.058l-0.029-0.06
			l-0.027-0.058l-0.028-0.059l-0.028-0.058l-0.029-0.06L58.9,19.047l-0.026-0.058l-0.029-0.059l-0.028-0.059l-0.028-0.057
			l-0.029-0.029l-0.028-0.059l-0.026-0.058l-0.029-0.058l-0.028-0.059l-0.028-0.029l-0.029-0.058l-0.027-0.058l-0.028-0.059
			l-0.028-0.029l-0.029-0.058l-0.028-0.058l-0.028-0.029l-0.027-0.059l-0.028-0.057l-0.028-0.059l-0.029-0.029l-0.028-0.058
			l-0.026-0.058l-0.029-0.029l-0.028-0.059l-0.028-0.058l-0.029-0.028l-0.028-0.059l-0.027-0.059l-0.028-0.029l-0.028-0.057
			l-0.029-0.059l-0.028-0.029l-0.026-0.058l-0.029-0.029l-0.028-0.06l-0.029-0.057l-0.028-0.029l-0.026-0.059l-0.029-0.029
			l-0.028-0.057l-0.028-0.029l-0.029-0.059l-0.028-0.059l-0.026-0.028l-0.029-0.058l-0.028-0.029l-0.029-0.059l-0.028-0.028
			l-0.028-0.058l-0.027-0.029l-0.028-0.059L57.4,16.494l-0.029-0.057l-0.028-0.029l-0.026-0.059l-0.029-0.029l-0.028-0.058
			l-0.028-0.028l-0.029-0.059l-0.026-0.029l-0.028-0.058l-0.029-0.028l-0.029-0.059l-0.028-0.029l-0.043-0.057l-0.027-0.029
			l-0.028-0.029l-0.028-0.058l-0.029-0.029l-0.028-0.06l-0.026-0.028l-0.029-0.058l-0.028-0.03l-0.028-0.058l-0.029-0.029
			l-0.026-0.029l-0.028-0.059l-0.029-0.028l-0.029-0.058l-0.028-0.029l-0.028-0.029l-0.027-0.058l-0.028-0.029l-0.028-0.028
			l-0.029-0.059l-0.028-0.029l-0.035-0.057l-0.027-0.029l-0.028-0.029L56.303,14.9l-0.029-0.029l-0.028-0.029l-0.026-0.059
			l-0.029-0.029l-0.029-0.028l-0.028-0.06l-0.028-0.028l-0.027-0.028l-0.028-0.059l-0.028-0.029l-0.029-0.029l-0.028-0.058
			l-0.028-0.028l-0.027-0.029l-0.028-0.029l-0.028-0.059L55.82,14.26l-0.028-0.029l-0.026-0.058l-0.029-0.029l-0.029-0.029
			l-0.027-0.058l-0.029-0.028L55.621,14l-0.025-0.029l-0.029-0.059l-0.029-0.028l-0.027-0.029l-0.029-0.028l-0.027-0.059
			l-0.028-0.029l-0.028-0.029l-0.029-0.028l-0.028-0.058l-0.028-0.029l-0.027-0.029l-0.028-0.027l-0.028-0.029l-0.029-0.059
			l-0.029-0.029l-0.025-0.028l-0.029-0.028l-0.029-0.059l-0.027-0.027l-0.029-0.029l-0.029-0.029l-0.025-0.029l-0.029-0.058
			l-0.029-0.029l-0.027-0.028l-0.029-0.029l-0.046-0.029l-0.026-0.029l-0.029-0.058L54.728,12.9l-0.029-0.029l-0.026-0.029
			l-0.028-0.029l-0.029-0.029l-0.028-0.058l-0.028-0.028l-0.029-0.029l-0.026-0.029l-0.028-0.029l-0.029-0.029l-0.028-0.028
			l-0.028-0.058l-0.027-0.029l-0.028-0.028l-0.028-0.028l-0.029-0.029l-0.029-0.029l-0.028-0.029l-0.026-0.058l-0.029-0.028
			l-0.028-0.029l-0.028-0.029l-0.029-0.029l-0.026-0.029l-0.028-0.029l-0.029-0.027l-0.028-0.029l-0.028-0.029l-0.029-0.029
			l-0.026-0.059l-0.028-0.027l-0.029-0.029l-0.029-0.029l-0.025-0.028l-0.031-0.029l-0.027-0.028l-0.027-0.029l-0.029-0.029
			l-0.029-0.029l-0.027-0.029l-0.027-0.028l-0.029-0.028l-0.027-0.029l-0.029-0.029l-0.029-0.059l-0.025-0.029l-0.029-0.028
			l-0.029-0.028l-0.029-0.029l-0.027-0.029l-0.027-0.029l-0.029-0.029l-0.027-0.028l-0.029-0.028l-0.029-0.029l-0.025-0.028
			l-0.029-0.029l-0.029-0.028l-0.027-0.029l-0.029-0.029l-0.027-0.029l-0.029-0.029l-0.027-0.028l-0.029-0.028l-0.028-0.029
			l-0.028-0.029l-0.027-0.029l-0.028-0.029l-0.028-0.028l-0.029-0.029l-0.029-0.028l-0.027-0.029L52.63,10.64l-0.027-0.029
			l-0.029-0.029l-0.029-0.028l-0.025-0.028l-0.029-0.029l-0.029-0.029l-0.028-0.029l-0.028-0.029l-0.027-0.028l-0.03-0.029
			l-0.026-0.028l-0.029-0.029l-0.028-0.029l-0.058-0.029l-0.028-0.029l-0.028-0.028l-0.029-0.028l-0.029-0.029l-0.027-0.029
			l-0.027-0.029l-0.029-0.029l-0.059-0.029l-0.029-0.028l-0.026-0.028l-0.028-0.029l-0.029-0.029l-0.028-0.029l-0.028-0.029
			l-0.058-0.028L51.69,9.77l-0.029-0.028l-0.029-0.029l-0.028-0.029l-0.058-0.029l-0.028-0.029l-0.028-0.028L51.46,9.568
			l-0.026-0.029l-0.028-0.029l-0.06-0.029l-0.028-0.029l-0.029-0.028l-0.026-0.029l-0.06-0.028l-0.029-0.029l-0.028-0.029
			l-0.026-0.029l-0.029-0.029L51.03,9.219l-0.116-0.021l-0.028-0.029L50.856,9.14L50.8,9.111l-0.029-0.029l-0.028-0.028
			l-0.027-0.028l-0.059-0.029l-0.029-0.029l-0.028-0.027L50.541,8.91L50.513,8.88l-0.029-0.028l-0.028-0.028l-0.058-0.029
			l-0.028-0.029L50.34,8.736l-0.059-0.029l-0.027-0.028L50.226,8.65l-0.06-0.029l-0.028-0.029l-0.029-0.029l-0.057-0.029
			l-0.029-0.028l-0.028-0.029l-0.06-0.028l-0.026-0.029l-0.06-0.029l-0.029-0.029L49.791,8.33l-0.058-0.028l-0.028-0.028
			l-0.06-0.029l-0.026-0.029l-0.028-0.029l-0.06-0.029l-0.029-0.028l-0.058-0.029L49.416,8.07l-0.028-0.029l-0.06-0.028L49.3,7.984
			l-0.058-0.029l-0.029-0.029l-0.06-0.029l-0.026-0.029l-0.06-0.029l-0.028-0.029l-0.058-0.029L48.953,7.75l-0.06-0.027
			l-0.028-0.029l-0.029-0.029l-0.058-0.028L48.72,7.607L48.69,7.578l-0.057-0.029l-0.029-0.029l-0.06-0.029l-0.026-0.028
			l-0.06-0.029l-0.028-0.028l-0.06-0.029l-0.026-0.029l-0.06-0.029l-0.06-0.029l-0.028-0.028L48.14,7.23L48.11,7.201l-0.059-0.029
			l-0.058-0.029l-0.028-0.029l-0.06-0.028l-0.027-0.029L47.82,7.027l-0.06-0.029l-0.029-0.029l-0.057-0.029l-0.06-0.029
			l-0.029-0.028l-0.057-0.028l-0.06-0.029L47.44,6.794l-0.057-0.029l-0.06-0.029l-0.06-0.029l-0.026-0.028l-0.06-0.028l-0.06-0.029
			l-0.028-0.029l-0.058-0.029l-0.06-0.029l-0.058-0.028l-0.09-0.029l-0.029-0.028l-0.058-0.029l-0.059-0.029l-0.06-0.029
			L46.592,6.33l-0.057-0.028l-0.06-0.029l-0.058-0.028l-0.06-0.029l-0.06-0.029l-0.057-0.029l-0.026-0.029l-0.06-0.028L46.098,6.07
			L46.04,6.041l-0.06-0.029l-0.058-0.029l-0.059-0.029l-0.06-0.028l-0.058-0.029l-0.06-0.028l-0.06-0.029l-0.057-0.029l-0.06-0.029
			L45.454,5.75l-0.06-0.028l-0.06-0.028l-0.057-0.029l-0.06-0.029l-0.06-0.028l-0.058-0.028l-0.06-0.029L44.983,5.52l-0.058-0.028
			l-0.06-0.029l-0.058-0.029l-0.06-0.029l-0.088-0.029l-0.057-0.027l-0.061-0.029l-0.057-0.029l-0.06-0.029L44.339,5.23
			l-0.057-0.029l-0.06-0.028l-0.058-0.029l-0.088-0.028l-0.057-0.029L43.96,5.056l-0.059-0.029l-0.086-0.029l-0.061-0.028
			l-0.086-0.028L43.61,4.912l-0.06-0.029l-0.087-0.029l-0.059-0.029l-0.057-0.029L43.26,4.766l-0.086-0.028l-0.06-0.029
			l-0.086-0.029l-0.06-0.029l-0.086-0.029l-0.06-0.028l-0.086-0.029l-0.059-0.028l-0.062-0.033l-0.088-0.028l-0.086-0.028
			l-0.06-0.031l-0.087-0.028l-0.088-0.028l-0.059-0.029l-0.086-0.029l-0.086-0.029l-0.087-0.027l-0.086-0.029l-0.088-0.029
			l-0.086-0.029l-0.089-0.029l-0.086-0.028l-0.088-0.028l-0.086-0.029l-0.066-0.029L41.128,3.98l-0.086-0.029l-0.114-0.029
			l-0.089-0.028l-0.088-0.028l-0.086-0.029L40.55,3.806l-0.088-0.029l-0.114-0.029l-0.115-0.028L40.145,3.69l-0.115-0.028
			l-0.086-0.029l-0.117-0.029l-0.114-0.029l-0.115-0.029l-0.117-0.028l-0.115-0.028L39.25,3.458l-0.114-0.029L38.989,3.4
			L38.87,3.371l-0.145-0.028L38.61,3.313l-0.146-0.028l-0.146-0.029l-0.146-0.029l-0.146-0.029l-0.146-0.029l-0.146-0.028
			l-0.174-0.028L37.39,3.082l-0.175-0.028l-0.174-0.028l-0.203-0.029l-0.229-0.029l-0.203-0.028l-0.23-0.03l-0.259-0.029
			l-0.29-0.027l-0.317-0.029c0,0-0.4-0.035-0.376-0.029c-0.79-0.1-1.868-0.162-3.149-0.131C30.687,2.687,29.524,2.791,29.524,2.791
			L29.524,2.791L29.524,2.791z"/>
	</g>
	<path fill="#FFFFFF" d="M105.444,48.343h-6.899l3.404-16.148L90.726,48.343h-5.521l-4.416-16.148l-3.402,16.148h-6.9l6.854-32.297
		h6.899l5.843,21.916l15.316-21.916h6.898L105.444,48.343L105.444,48.343z M143.186,20.201c-0.016,0.153-0.039,0.308-0.068,0.461
		l-4.922,23.068c-0.248,1.262-0.922,2.354-2.023,3.275c-1.137,0.893-2.316,1.338-3.543,1.338H114.23c-1.104,0-2-0.361-2.689-1.084
		s-1.035-1.607-1.035-2.652c0-0.154,0.008-0.299,0.022-0.438s0.038-0.285,0.069-0.439l4.922-23.068
		c0.244-1.262,0.919-2.338,2.023-3.23c1.104-0.922,2.283-1.385,3.541-1.385h18.398c1.104,0,2,0.355,2.691,1.062
		c0.688,0.709,1.033,1.6,1.033,2.676C143.207,19.908,143.199,20.046,143.186,20.201L143.186,20.201z M122.004,22.505l-4.094,19.378
		h13.799l4.094-19.378H122.004L122.004,22.505z M174.969,20.201c-0.016,0.153-0.039,0.308-0.068,0.461l-1.477,6.818
		c-0.275,1.262-0.965,2.354-2.07,3.275c-1.072,0.893-2.236,1.338-3.494,1.338c1.105,0,2,0.354,2.689,1.062
		c0.691,0.707,1.01,1.573,1.01,2.65c0,0.123-0.008,0.262-0.02,0.415c-0.02,0.153-0.039,0.308-0.07,0.462l-1.488,7.046
		c-0.246,1.263-0.92,2.354-2.025,3.274c-1.135,0.894-2.314,1.339-3.541,1.339h-22.998l6.854-32.296h22.998
		c1.105,0,2.002,0.354,2.691,1.062c0.689,0.707,1.035,1.6,1.035,2.676C174.992,19.908,174.984,20.046,174.969,20.201L174.969,20.201
		z M149.693,41.884h13.801l1.377-6.561H151.07L149.693,41.884L149.693,41.884z M153.787,22.505l-1.336,6.357h13.797l1.338-6.357
		H153.787L153.787,22.505z M180.051,48.343h-6.9l6.855-32.297h6.898L180.051,48.343L180.051,48.343z M211.053,41.884l-1.381,6.459
		h-20.699c-1.104,0-2-0.361-2.688-1.084c-0.691-0.723-1.035-1.607-1.035-2.652c0-0.154,0.006-0.299,0.021-0.438
		s0.037-0.285,0.068-0.439l5.887-27.684h6.9l-5.475,25.838H211.053L211.053,41.884z M242.791,22.505h-18.398l-1.342,6.328h18.398
		l-1.379,6.459h-18.4l-1.373,6.591h18.4l-1.381,6.459h-20.699c-1.104,0-2-0.361-2.689-1.084c-0.689-0.724-1.035-1.606-1.035-2.652
		c0-0.153,0.006-0.299,0.023-0.438c0.014-0.139,0.037-0.284,0.068-0.438l4.922-23.069c0.244-1.261,0.92-2.336,2.023-3.229
		c1.104-0.922,2.285-1.384,3.543-1.384h20.697L242.791,22.505L242.791,22.505z"/>
</g>
</svg>
